<svg xmlns="http://www.w3.org/2000/svg" xmlns:xlink="http://www.w3.org/1999/xlink" width="4000" zoomAndPan="magnify" viewBox="0 0 3000 2999.999989" height="4000" preserveAspectRatio="xMidYMid meet" version="1.0"><defs><g/><clipPath id="d8a0f00f3c"><path d="M 0 0 L 3000 0 L 3000 3000 L 0 3000 Z M 0 0 " clip-rule="nonzero"/></clipPath><clipPath id="2793236314"><path d="M 1500 0 C 671.574219 0 0 671.574219 0 1500 C 0 2328.425781 671.574219 3000 1500 3000 C 2328.425781 3000 3000 2328.425781 3000 1500 C 3000 671.574219 2328.425781 0 1500 0 Z M 1500 0 " clip-rule="nonzero"/></clipPath><clipPath id="c267c85d78"><path d="M 0 0 L 3000 0 L 3000 3000 L 0 3000 Z M 0 0 " clip-rule="nonzero"/></clipPath><clipPath id="215a5deb0b"><path d="M 1500 0 C 671.574219 0 0 671.574219 0 1500 C 0 2328.425781 671.574219 3000 1500 3000 C 2328.425781 3000 3000 2328.425781 3000 1500 C 3000 671.574219 2328.425781 0 1500 0 Z M 1500 0 " clip-rule="nonzero"/></clipPath><clipPath id="a470abf393"><rect x="0" width="3000" y="0" height="3000"/></clipPath><clipPath id="8c49e8020f"><path d="M 139 1673 L 1263 1673 L 1263 2220.128906 L 139 2220.128906 Z M 139 1673 " clip-rule="nonzero"/></clipPath><clipPath id="b89c14f29d"><rect x="0" width="3000" y="0" height="3000"/></clipPath></defs><g transform="matrix(1, 0, 0, 1, 0, 0.000000000000341558)"><g clip-path="url(#b89c14f29d)"><g clip-path="url(#d8a0f00f3c)"><g clip-path="url(#2793236314)"><g transform="matrix(1, 0, 0, 1, 0, 0.000000000000341558)"><g clip-path="url(#a470abf393)"><g clip-path="url(#c267c85d78)"><g clip-path="url(#215a5deb0b)"><rect x="-1092" width="5184" fill="#2a5872" y="-1091.999996" height="5183.999981" fill-opacity="1"/></g></g></g></g></g></g><g fill="#ffffff" fill-opacity="1"><g transform="translate(1498.069193, 1498.987153)"><g><path d="M 0.046875 0.125 L 0.046875 0.046875 L 0.09375 0.046875 C 0.125 0.046875 0.144531 0.0351562 0.15625 0.015625 C 0.175781 0.00390625 0.1875 -0.015625 0.1875 -0.046875 L 0.1875 -0.25 C 0.1875 -0.289062 0.191406 -0.320312 0.203125 -0.34375 C 0.222656 -0.375 0.25 -0.394531 0.28125 -0.40625 L 0.28125 -0.421875 C 0.25 -0.429688 0.222656 -0.445312 0.203125 -0.46875 C 0.191406 -0.488281 0.1875 -0.519531 0.1875 -0.5625 L 0.1875 -0.765625 C 0.1875 -0.796875 0.175781 -0.816406 0.15625 -0.828125 C 0.144531 -0.847656 0.125 -0.859375 0.09375 -0.859375 L 0.046875 -0.859375 L 0.046875 -0.9375 L 0.109375 -0.9375 C 0.160156 -0.9375 0.203125 -0.921875 0.234375 -0.890625 C 0.265625 -0.867188 0.28125 -0.828125 0.28125 -0.765625 L 0.28125 -0.546875 C 0.28125 -0.515625 0.285156 -0.488281 0.296875 -0.46875 C 0.316406 -0.457031 0.347656 -0.453125 0.390625 -0.453125 L 0.4375 -0.453125 L 0.4375 -0.359375 L 0.390625 -0.359375 C 0.347656 -0.359375 0.316406 -0.347656 0.296875 -0.328125 C 0.285156 -0.316406 0.28125 -0.296875 0.28125 -0.265625 L 0.28125 -0.046875 C 0.28125 0.015625 0.265625 0.0546875 0.234375 0.078125 C 0.203125 0.109375 0.160156 0.125 0.109375 0.125 Z M 0.046875 0.125 "/></g></g></g><g fill="#ffffff" fill-opacity="1"><g transform="translate(1498.547758, 1498.987153)"><g><path d="M 0.375 0.125 C 0.320312 0.125 0.28125 0.109375 0.25 0.078125 C 0.21875 0.0546875 0.203125 0.015625 0.203125 -0.046875 L 0.203125 -0.265625 C 0.203125 -0.296875 0.191406 -0.316406 0.171875 -0.328125 C 0.160156 -0.347656 0.132812 -0.359375 0.09375 -0.359375 L 0.046875 -0.359375 L 0.046875 -0.453125 L 0.09375 -0.453125 C 0.132812 -0.453125 0.160156 -0.457031 0.171875 -0.46875 C 0.191406 -0.488281 0.203125 -0.515625 0.203125 -0.546875 L 0.203125 -0.765625 C 0.203125 -0.828125 0.21875 -0.867188 0.25 -0.890625 C 0.28125 -0.921875 0.320312 -0.9375 0.375 -0.9375 L 0.4375 -0.9375 L 0.4375 -0.859375 L 0.390625 -0.859375 C 0.359375 -0.859375 0.332031 -0.847656 0.3125 -0.828125 C 0.300781 -0.816406 0.296875 -0.796875 0.296875 -0.765625 L 0.296875 -0.5625 C 0.296875 -0.519531 0.285156 -0.488281 0.265625 -0.46875 C 0.253906 -0.445312 0.234375 -0.429688 0.203125 -0.421875 L 0.203125 -0.40625 C 0.234375 -0.394531 0.253906 -0.375 0.265625 -0.34375 C 0.285156 -0.320312 0.296875 -0.289062 0.296875 -0.25 L 0.296875 -0.046875 C 0.296875 -0.015625 0.300781 0.00390625 0.3125 0.015625 C 0.332031 0.0351562 0.359375 0.046875 0.390625 0.046875 L 0.4375 0.046875 L 0.4375 0.125 Z M 0.375 0.125 "/></g></g></g><g fill="#ffffff" fill-opacity="1"><g transform="translate(1499.026942, 1498.987153)"><g><path d="M 0.375 0.125 C 0.320312 0.125 0.28125 0.109375 0.25 0.078125 C 0.21875 0.0546875 0.203125 0.015625 0.203125 -0.046875 L 0.203125 -0.265625 C 0.203125 -0.296875 0.191406 -0.316406 0.171875 -0.328125 C 0.160156 -0.347656 0.132812 -0.359375 0.09375 -0.359375 L 0.046875 -0.359375 L 0.046875 -0.453125 L 0.09375 -0.453125 C 0.132812 -0.453125 0.160156 -0.457031 0.171875 -0.46875 C 0.191406 -0.488281 0.203125 -0.515625 0.203125 -0.546875 L 0.203125 -0.765625 C 0.203125 -0.828125 0.21875 -0.867188 0.25 -0.890625 C 0.28125 -0.921875 0.320312 -0.9375 0.375 -0.9375 L 0.4375 -0.9375 L 0.4375 -0.859375 L 0.390625 -0.859375 C 0.359375 -0.859375 0.332031 -0.847656 0.3125 -0.828125 C 0.300781 -0.816406 0.296875 -0.796875 0.296875 -0.765625 L 0.296875 -0.5625 C 0.296875 -0.519531 0.285156 -0.488281 0.265625 -0.46875 C 0.253906 -0.445312 0.234375 -0.429688 0.203125 -0.421875 L 0.203125 -0.40625 C 0.234375 -0.394531 0.253906 -0.375 0.265625 -0.34375 C 0.285156 -0.320312 0.296875 -0.289062 0.296875 -0.25 L 0.296875 -0.046875 C 0.296875 -0.015625 0.300781 0.00390625 0.3125 0.015625 C 0.332031 0.0351562 0.359375 0.046875 0.390625 0.046875 L 0.4375 0.046875 L 0.4375 0.125 Z M 0.375 0.125 "/></g></g></g><g fill="#ffffff" fill-opacity="1"><g transform="translate(1499.506125, 1498.987153)"><g><path d="M 0.375 0.125 C 0.320312 0.125 0.28125 0.109375 0.25 0.078125 C 0.21875 0.0546875 0.203125 0.015625 0.203125 -0.046875 L 0.203125 -0.265625 C 0.203125 -0.296875 0.191406 -0.316406 0.171875 -0.328125 C 0.160156 -0.347656 0.132812 -0.359375 0.09375 -0.359375 L 0.046875 -0.359375 L 0.046875 -0.453125 L 0.09375 -0.453125 C 0.132812 -0.453125 0.160156 -0.457031 0.171875 -0.46875 C 0.191406 -0.488281 0.203125 -0.515625 0.203125 -0.546875 L 0.203125 -0.765625 C 0.203125 -0.828125 0.21875 -0.867188 0.25 -0.890625 C 0.28125 -0.921875 0.320312 -0.9375 0.375 -0.9375 L 0.4375 -0.9375 L 0.4375 -0.859375 L 0.390625 -0.859375 C 0.359375 -0.859375 0.332031 -0.847656 0.3125 -0.828125 C 0.300781 -0.816406 0.296875 -0.796875 0.296875 -0.765625 L 0.296875 -0.5625 C 0.296875 -0.519531 0.285156 -0.488281 0.265625 -0.46875 C 0.253906 -0.445312 0.234375 -0.429688 0.203125 -0.421875 L 0.203125 -0.40625 C 0.234375 -0.394531 0.253906 -0.375 0.265625 -0.34375 C 0.285156 -0.320312 0.296875 -0.289062 0.296875 -0.25 L 0.296875 -0.046875 C 0.296875 -0.015625 0.300781 0.00390625 0.3125 0.015625 C 0.332031 0.0351562 0.359375 0.046875 0.390625 0.046875 L 0.4375 0.046875 L 0.4375 0.125 Z M 0.375 0.125 "/></g></g></g><g fill="#ffffff" fill-opacity="1"><g transform="translate(1499.985309, 1498.987153)"><g><path d="M 0.046875 0.125 L 0.046875 0.046875 L 0.09375 0.046875 C 0.125 0.046875 0.144531 0.0351562 0.15625 0.015625 C 0.175781 0.00390625 0.1875 -0.015625 0.1875 -0.046875 L 0.1875 -0.25 C 0.1875 -0.289062 0.191406 -0.320312 0.203125 -0.34375 C 0.222656 -0.375 0.25 -0.394531 0.28125 -0.40625 L 0.28125 -0.421875 C 0.25 -0.429688 0.222656 -0.445312 0.203125 -0.46875 C 0.191406 -0.488281 0.1875 -0.519531 0.1875 -0.5625 L 0.1875 -0.765625 C 0.1875 -0.796875 0.175781 -0.816406 0.15625 -0.828125 C 0.144531 -0.847656 0.125 -0.859375 0.09375 -0.859375 L 0.046875 -0.859375 L 0.046875 -0.9375 L 0.109375 -0.9375 C 0.160156 -0.9375 0.203125 -0.921875 0.234375 -0.890625 C 0.265625 -0.867188 0.28125 -0.828125 0.28125 -0.765625 L 0.28125 -0.546875 C 0.28125 -0.515625 0.285156 -0.488281 0.296875 -0.46875 C 0.316406 -0.457031 0.347656 -0.453125 0.390625 -0.453125 L 0.4375 -0.453125 L 0.4375 -0.359375 L 0.390625 -0.359375 C 0.347656 -0.359375 0.316406 -0.347656 0.296875 -0.328125 C 0.285156 -0.316406 0.28125 -0.296875 0.28125 -0.265625 L 0.28125 -0.046875 C 0.28125 0.015625 0.265625 0.0546875 0.234375 0.078125 C 0.203125 0.109375 0.160156 0.125 0.109375 0.125 Z M 0.046875 0.125 "/></g></g></g><g fill="#ffffff" fill-opacity="1"><g transform="translate(1500.463874, 1498.987153)"><g><path d="M 0.046875 0.125 L 0.046875 0.046875 L 0.09375 0.046875 C 0.125 0.046875 0.144531 0.0351562 0.15625 0.015625 C 0.175781 0.00390625 0.1875 -0.015625 0.1875 -0.046875 L 0.1875 -0.25 C 0.1875 -0.289062 0.191406 -0.320312 0.203125 -0.34375 C 0.222656 -0.375 0.25 -0.394531 0.28125 -0.40625 L 0.28125 -0.421875 C 0.25 -0.429688 0.222656 -0.445312 0.203125 -0.46875 C 0.191406 -0.488281 0.1875 -0.519531 0.1875 -0.5625 L 0.1875 -0.765625 C 0.1875 -0.796875 0.175781 -0.816406 0.15625 -0.828125 C 0.144531 -0.847656 0.125 -0.859375 0.09375 -0.859375 L 0.046875 -0.859375 L 0.046875 -0.9375 L 0.109375 -0.9375 C 0.160156 -0.9375 0.203125 -0.921875 0.234375 -0.890625 C 0.265625 -0.867188 0.28125 -0.828125 0.28125 -0.765625 L 0.28125 -0.546875 C 0.28125 -0.515625 0.285156 -0.488281 0.296875 -0.46875 C 0.316406 -0.457031 0.347656 -0.453125 0.390625 -0.453125 L 0.4375 -0.453125 L 0.4375 -0.359375 L 0.390625 -0.359375 C 0.347656 -0.359375 0.316406 -0.347656 0.296875 -0.328125 C 0.285156 -0.316406 0.28125 -0.296875 0.28125 -0.265625 L 0.28125 -0.046875 C 0.28125 0.015625 0.265625 0.0546875 0.234375 0.078125 C 0.203125 0.109375 0.160156 0.125 0.109375 0.125 Z M 0.046875 0.125 "/></g></g></g><g fill="#ffffff" fill-opacity="1"><g transform="translate(1500.94244, 1498.987153)"><g><path d="M 0.046875 0.125 L 0.046875 0.046875 L 0.09375 0.046875 C 0.125 0.046875 0.144531 0.0351562 0.15625 0.015625 C 0.175781 0.00390625 0.1875 -0.015625 0.1875 -0.046875 L 0.1875 -0.25 C 0.1875 -0.289062 0.191406 -0.320312 0.203125 -0.34375 C 0.222656 -0.375 0.25 -0.394531 0.28125 -0.40625 L 0.28125 -0.421875 C 0.25 -0.429688 0.222656 -0.445312 0.203125 -0.46875 C 0.191406 -0.488281 0.1875 -0.519531 0.1875 -0.5625 L 0.1875 -0.765625 C 0.1875 -0.796875 0.175781 -0.816406 0.15625 -0.828125 C 0.144531 -0.847656 0.125 -0.859375 0.09375 -0.859375 L 0.046875 -0.859375 L 0.046875 -0.9375 L 0.109375 -0.9375 C 0.160156 -0.9375 0.203125 -0.921875 0.234375 -0.890625 C 0.265625 -0.867188 0.28125 -0.828125 0.28125 -0.765625 L 0.28125 -0.546875 C 0.28125 -0.515625 0.285156 -0.488281 0.296875 -0.46875 C 0.316406 -0.457031 0.347656 -0.453125 0.390625 -0.453125 L 0.4375 -0.453125 L 0.4375 -0.359375 L 0.390625 -0.359375 C 0.347656 -0.359375 0.316406 -0.347656 0.296875 -0.328125 C 0.285156 -0.316406 0.28125 -0.296875 0.28125 -0.265625 L 0.28125 -0.046875 C 0.28125 0.015625 0.265625 0.0546875 0.234375 0.078125 C 0.203125 0.109375 0.160156 0.125 0.109375 0.125 Z M 0.046875 0.125 "/></g></g></g><g fill="#ffffff" fill-opacity="1"><g transform="translate(1501.421005, 1498.987153)"><g><path d="M 0.046875 0.125 L 0.046875 0.046875 L 0.09375 0.046875 C 0.125 0.046875 0.144531 0.0351562 0.15625 0.015625 C 0.175781 0.00390625 0.1875 -0.015625 0.1875 -0.046875 L 0.1875 -0.25 C 0.1875 -0.289062 0.191406 -0.320312 0.203125 -0.34375 C 0.222656 -0.375 0.25 -0.394531 0.28125 -0.40625 L 0.28125 -0.421875 C 0.25 -0.429688 0.222656 -0.445312 0.203125 -0.46875 C 0.191406 -0.488281 0.1875 -0.519531 0.1875 -0.5625 L 0.1875 -0.765625 C 0.1875 -0.796875 0.175781 -0.816406 0.15625 -0.828125 C 0.144531 -0.847656 0.125 -0.859375 0.09375 -0.859375 L 0.046875 -0.859375 L 0.046875 -0.9375 L 0.109375 -0.9375 C 0.160156 -0.9375 0.203125 -0.921875 0.234375 -0.890625 C 0.265625 -0.867188 0.28125 -0.828125 0.28125 -0.765625 L 0.28125 -0.546875 C 0.28125 -0.515625 0.285156 -0.488281 0.296875 -0.46875 C 0.316406 -0.457031 0.347656 -0.453125 0.390625 -0.453125 L 0.4375 -0.453125 L 0.4375 -0.359375 L 0.390625 -0.359375 C 0.347656 -0.359375 0.316406 -0.347656 0.296875 -0.328125 C 0.285156 -0.316406 0.28125 -0.296875 0.28125 -0.265625 L 0.28125 -0.046875 C 0.28125 0.015625 0.265625 0.0546875 0.234375 0.078125 C 0.203125 0.109375 0.160156 0.125 0.109375 0.125 Z M 0.046875 0.125 "/></g></g></g><g clip-path="url(#8c49e8020f)"><path fill="#ffffff" d="M 139.5 2095.660156 L 229.140625 2095.660156 L 229.140625 1741.800781 L 367.914062 2050.394531 C 384.28125 2087.597656 406.710938 2100.960938 450.660156 2100.960938 C 494.609375 2100.960938 516.160156 2087.742188 532.554688 2050.394531 L 671.34375 1741.800781 L 671.34375 2095.792969 L 760.996094 2095.792969 L 760.996094 1742.382812 C 760.996094 1707.90625 747.179688 1691.234375 718.746094 1682.625 C 650.65625 1661.367188 604.964844 1679.753906 584.292969 1725.722656 L 448.109375 2030.28125 L 316.207031 1725.589844 C 296.382812 1679.621094 249.839844 1661.234375 181.75 1682.488281 C 153.292969 1691.113281 139.5 1707.785156 139.5 1742.25 Z M 835.503906 1807.539062 L 925.121094 1807.539062 L 925.121094 2002.578125 C 924.28125 2013.179688 928.519531 2038.050781 977.625 2038.808594 C 1002.683594 2039.207031 1170.992188 2038.808594 1172.558594 2038.808594 L 1172.558594 1806.570312 L 1262.375 1806.570312 C 1262.773438 1806.570312 1262.28125 2123.230469 1262.292969 2124.585938 C 1262.785156 2202.679688 1165.386719 2219.648438 1120.503906 2220.960938 L 837.457031 2220.960938 L 837.457031 2160.644531 L 1121.007812 2160.628906 C 1178.699219 2154.519531 1171.894531 2125.859375 1171.894531 2116.199219 L 1171.894531 2092.683594 L 981.371094 2092.683594 C 892.726562 2091.886719 836.289062 2053.183594 835.585938 2008.675781 C 835.519531 2004.691406 837.5 1809.453125 835.53125 1807.527344 Z M 835.503906 1807.539062 " fill-opacity="1" fill-rule="nonzero"/></g><path fill="#e48e00" d="M 1331.476562 2095.660156 L 1589.199219 2095.660156 C 1619.359375 2095.660156 1648.679688 2089.351562 1671.96875 2078.414062 C 1710.765625 2060.613281 1729.726562 2036.472656 1729.726562 2004.863281 L 1729.726562 1939.363281 C 1729.726562 1913.496094 1708.175781 1889.367188 1665.953125 1873.277344 C 1643.539062 1864.640625 1615.957031 1860.058594 1589.238281 1860.058594 L 1480.625 1860.058594 C 1444.433594 1860.058594 1427.1875 1849.136719 1422.882812 1825.011719 C 1422.019531 1822.140625 1422.019531 1819.695312 1422.019531 1816.957031 L 1422.019531 1776.171875 C 1422.019531 1773.871094 1422.019531 1771.558594 1422.882812 1768.691406 C 1427.1875 1750.300781 1436.675781 1745.121094 1468.558594 1742.117188 C 1471.152344 1742.117188 1474.59375 1741.535156 1477.195312 1741.535156 L 1733.191406 1741.535156 L 1733.191406 1681.785156 L 1481.5 1681.785156 C 1445.296875 1681.785156 1426.335938 1684.085938 1409.09375 1689.253906 C 1355.574219 1705.925781 1332.296875 1732.5 1332.296875 1778.46875 L 1332.296875 1830.761719 C 1332.296875 1870.992188 1378.003906 1905.46875 1454.691406 1913.507812 C 1463.324219 1914.078125 1471.933594 1914.652344 1480.542969 1914.652344 L 1573.640625 1914.652344 C 1577.09375 1914.652344 1580.550781 1914.652344 1583.125 1915.234375 C 1611.558594 1917.535156 1623.648438 1922.703125 1632.257812 1933.039062 C 1637.574219 1938.351562 1639.167969 1943.402344 1639.167969 1948.980469 L 1639.167969 2001.277344 C 1639.167969 2007.601562 1634.863281 2015.652344 1626.238281 2022.535156 C 1618.480469 2029.441406 1605.554688 2034.027344 1588.308594 2035.183594 C 1584.851562 2035.183594 1582.277344 2035.753906 1578.835938 2035.753906 L 1331.449219 2035.753906 L 1331.449219 2095.515625 Z M 2288.921875 1991.65625 C 2288.921875 2053.144531 2334.601562 2087.621094 2426.832031 2094.519531 C 2435.4375 2095.183594 2444.054688 2095.566406 2452.6875 2095.660156 L 2686.28125 2095.660156 L 2686.28125 2035.898438 L 2450.960938 2035.898438 C 2398.386719 2035.898438 2378.550781 2022.679688 2378.550781 1991.074219 L 2378.550781 1681.90625 L 2288.910156 1681.90625 L 2288.910156 1991.628906 Z M 1786.90625 1994.765625 L 1786.90625 1781.722656 C 1786.90625 1727.597656 1824.90625 1694.765625 1900.050781 1684.402344 C 1908.078125 1683.257812 1916.140625 1682.683594 1924.246094 1682.675781 L 2094.402344 1682.675781 C 2102.792969 1682.679688 2111.144531 1683.257812 2119.460938 1684.402344 C 2194.605469 1694.765625 2232.601562 1727.582031 2232.601562 1781.722656 L 2232.601562 1994.765625 C 2232.601562 2038.675781 2216.460938 2062.179688 2179.257812 2077.5 L 2267.558594 2157.214844 L 2163.476562 2157.214844 L 2092.035156 2092.726562 L 2020.117188 2097.28125 L 1924.246094 2097.28125 C 1907.839844 2097.28125 1890.566406 2094.96875 1871.554688 2089.789062 C 1814.425781 2074.242188 1786.921875 2044.296875 1786.921875 1994.765625 Z M 1883.671875 1989.453125 C 1883.671875 1992.335938 1884.535156 1995.203125 1885.398438 1998.671875 C 1890.710938 2023.4375 1913.898438 2037.253906 1949.171875 2037.253906 L 2030.613281 2037.253906 L 1955.8125 1969.722656 L 2059.898438 1969.722656 L 2125 2028.621094 C 2137.023438 2022.214844 2144.929688 2012.410156 2147.585938 1999.828125 C 2148.449219 1996.957031 2148.449219 1994.074219 2148.449219 1991.191406 L 2148.449219 1786.917969 C 2148.449219 1784.621094 2148.449219 1781.605469 2147.585938 1778.855469 C 2142.269531 1755.828125 2119.074219 1742.582031 2084.53125 1742.582031 L 1949.410156 1742.582031 C 1909.550781 1742.582031 1883.777344 1759.855469 1883.777344 1786.917969 L 1883.777344 1989.609375 Z M 1883.671875 1989.453125 " fill-opacity="1" fill-rule="nonzero"/><path fill="#ffffff" d="M 2765.097656 1582.765625 C 2710 1581.277344 2667.894531 1586.390625 2631.917969 1601.566406 C 2621.6875 1605.882812 2605.382812 1605.988281 2603.710938 1618.808594 C 2609.328125 1624.695312 2610.21875 1633.492188 2614.671875 1640.730469 C 2623.265625 1654.644531 2637.789062 1673.28125 2650.714844 1683.035156 C 2664.851562 1693.703125 2679.414062 1705.128906 2694.601562 1714.390625 C 2721.570312 1730.839844 2751.675781 1740.230469 2777.636719 1756.691406 C 2792.941406 1766.390625 2808.144531 1778.613281 2823.078125 1789.589844 C 2830.449219 1795.011719 2835.433594 1803.433594 2845 1806.820312 L 2845 1805.253906 C 2839.949219 1798.835938 2838.660156 1790.015625 2834.039062 1783.332031 L 2813.667969 1762.964844 C 2793.742188 1736.390625 2768.46875 1713.3125 2741.59375 1694.007812 C 2720.160156 1678.625 2672.1875 1657.84375 2663.246094 1632.894531 L 2661.675781 1631.324219 C 2676.875 1629.597656 2694.667969 1624.109375 2708.710938 1620.363281 C 2732.265625 1614.054688 2753.324219 1615.675781 2777.664062 1609.402344 L 2810.574219 1599.996094 L 2810.574219 1593.726562 C 2798.269531 1581.105469 2789.503906 1564.402344 2776.097656 1552.992188 C 2741.019531 1523.097656 2702.71875 1493.269531 2663.296875 1468.359375 C 2641.429688 1454.539062 2614.40625 1445.585938 2591.21875 1433.882812 C 2583.421875 1429.949219 2569.722656 1427.902344 2564.582031 1421.339844 C 2552.410156 1405.820312 2545.78125 1386.128906 2536.390625 1368.195312 C 2516.726562 1330.328125 2497.40625 1288.957031 2479.976562 1249.113281 C 2468.085938 1221.941406 2460.3125 1195.144531 2445.511719 1170.761719 C 2374.367188 1053.792969 2297.769531 983.191406 2179.152344 913.8125 C 2153.910156 899.0625 2123.523438 893.21875 2091.398438 885.605469 L 2039.6875 882.46875 C 2029.167969 878.085938 2018.21875 865.195312 2008.332031 858.953125 C 1969.035156 834.105469 1868.230469 780.125 1839.121094 850.980469 C 1820.746094 895.792969 1866.585938 939.519531 1882.992188 962.238281 C 1894.5 978.183594 1909.246094 996.023438 1917.457031 1013.949219 C 1922.863281 1025.71875 1923.808594 1037.53125 1928.429688 1049.992188 C 1939.816406 1080.550781 1949.730469 1114.070312 1964.464844 1142.4375 C 1971.902344 1156.785156 1980.113281 1171.90625 1989.535156 1184.742188 C 1995.3125 1192.617188 2005.210938 1196.085938 2006.765625 1208.257812 C 1997.09375 1221.808594 1996.535156 1242.800781 1991.089844 1259.964844 C 1966.601562 1337.183594 1975.835938 1433.148438 2011.457031 1490.308594 C 2022.390625 1507.84375 2048.125 1545.472656 2083.53125 1531.042969 C 2114.488281 1518.421875 2107.449219 1479.359375 2116.441406 1444.867188 C 2118.433594 1437.03125 2117.214844 1431.316406 2121.144531 1426.070312 L 2121.144531 1427.636719 L 2149.351562 1484.035156 C 2170.210938 1517.648438 2207.28125 1552.792969 2238.660156 1576.507812 C 2254.9375 1588.796875 2267.890625 1610.054688 2288.804688 1617.242188 L 2288.804688 1615.675781 L 2287.234375 1615.675781 C 2283.15625 1609.296875 2276.777344 1606.679688 2271.558594 1601.589844 C 2259.292969 1589.566406 2245.648438 1574.621094 2235.511719 1560.855469 C 2206.949219 1522.085938 2181.730469 1479.679688 2158.746094 1435.5 C 2147.769531 1414.417969 2138.21875 1391.152344 2128.984375 1369.695312 C 2125.425781 1361.417969 2125.464844 1348.917969 2118.023438 1344.625 C 2107.886719 1360.355469 2092.953125 1373.058594 2085.113281 1391.632812 C 2072.570312 1421.3125 2070.953125 1457.503906 2066.316406 1495.050781 C 2063.5625 1496.035156 2064.785156 1495.355469 2063.179688 1496.617188 C 2041.363281 1491.355469 2033.683594 1468.890625 2025.578125 1449.613281 C 2005.066406 1400.851562 2001.265625 1322.382812 2019.308594 1266.289062 C 2023.957031 1251.78125 2045.082031 1206.050781 2036.539062 1192.644531 C 2032.460938 1179.265625 2019.003906 1171.386719 2011.46875 1161.289062 C 2002.167969 1148.667969 1992.84375 1132.007812 1986.398438 1117.417969 C 1969.605469 1079.421875 1961.765625 1036.773438 1944.097656 998.335938 C 1935.644531 979.976562 1921.375 961.402344 1909.632812 945.191406 C 1896.636719 927.125 1882.089844 913.785156 1872.03125 892.046875 C 1868.445312 884.277344 1863.582031 871.851562 1868.898438 863.839844 C 1869.152344 862.691406 1869.5625 861.597656 1870.125 860.566406 C 1870.691406 859.53125 1871.394531 858.597656 1872.226562 857.765625 C 1873.058594 856.929688 1873.992188 856.230469 1875.027344 855.664062 C 1876.058594 855.097656 1877.152344 854.6875 1878.304688 854.433594 C 1887.390625 847.433594 1912.714844 856.761719 1922.175781 860.707031 C 1947.285156 871.148438 1968.277344 881.085938 1989.5625 895.183594 C 1999.792969 901.828125 2010.113281 915.058594 2022.457031 918.699219 L 2036.539062 918.699219 C 2058.59375 923.773438 2083.308594 920.292969 2103.902344 926.539062 C 2140.332031 937.605469 2172.960938 954.839844 2202.617188 973.542969 C 2292.933594 1030.570312 2366.765625 1111.746094 2417.28125 1208.707031 C 2425.410156 1224.292969 2428.917969 1239.1875 2436.078125 1255.714844 C 2450.523438 1288.929688 2468.710938 1323.378906 2483.085938 1355.984375 C 2497.433594 1388.535156 2511.386719 1421.351562 2531.660156 1448.429688 C 2542.316406 1462.644531 2583.476562 1470.296875 2602.167969 1478.191406 C 2615.28125 1483.730469 2636.753906 1489.511719 2649.175781 1496.988281 C 2672.890625 1511.300781 2695.875 1528.34375 2718.128906 1544.023438 C 2729.25 1551.863281 2763.433594 1569.039062 2765.136719 1583.191406 Z M 2765.097656 1582.765625 " fill-opacity="1" fill-rule="nonzero"/><path fill="#ffffff" d="M 2064.785156 985.792969 C 2053.292969 985.582031 2045.175781 987.042969 2036.582031 988.929688 L 2036.582031 990.496094 L 2038.148438 990.496094 C 2043.621094 1001.765625 2053.292969 1009.003906 2060.070312 1018.703125 L 2075.746094 1051.601562 L 2077.316406 1050.03125 C 2087.015625 1043.191406 2091.464844 1032.257812 2091.398438 1015.554688 C 2087.503906 1011.464844 2086.933594 1006.335938 2083.558594 1001.445312 C 2079.082031 994.933594 2070.273438 991.242188 2064.761719 985.769531 Z M 2064.785156 985.792969 " fill-opacity="1" fill-rule="evenodd"/><path fill="#e48e00" d="M 2728.425781 2034.199219 C 2728.425781 2073.660156 2759.609375 2100.257812 2794.484375 2100.257812 C 2829.359375 2100.257812 2860.542969 2073.660156 2860.542969 2034.199219 C 2860.542969 1994.738281 2829.359375 1968.140625 2794.484375 1968.140625 C 2759.609375 1968.140625 2728.425781 1994.738281 2728.425781 2034.199219 Z M 2845.742188 2034.199219 C 2845.742188 2064.144531 2822.851562 2086.519531 2794.457031 2086.519531 C 2765.761719 2086.519531 2743.175781 2064.144531 2743.175781 2034.199219 C 2743.175781 2004.253906 2765.734375 1981.878906 2794.457031 1981.878906 C 2822.824219 1981.878906 2845.742188 2004.253906 2845.742188 2034.199219 Z M 2812.261719 2071.90625 L 2827.050781 2071.90625 L 2805.394531 2038.796875 C 2817.019531 2037.5625 2825.8125 2031.914062 2825.8125 2018.175781 C 2825.8125 2002.84375 2816.113281 1996.519531 2797.460938 1996.519531 L 2768.03125 1996.519531 L 2768.03125 2071.917969 L 2780.71875 2071.917969 L 2780.71875 2039.328125 L 2792.519531 2039.328125 L 2812.25 2071.917969 Z M 2780.71875 2028.726562 L 2780.71875 2007.070312 L 2795.335938 2007.070312 C 2802.910156 2007.070312 2812.074219 2008.476562 2812.074219 2017.300781 C 2812.074219 2027.863281 2803.796875 2028.753906 2794.273438 2028.753906 L 2780.71875 2028.753906 Z M 2780.71875 2028.726562 " fill-opacity="1" fill-rule="evenodd"/></g></g></svg>