<svg xmlns="http://www.w3.org/2000/svg" xmlns:xlink="http://www.w3.org/1999/xlink" width="4000" zoomAndPan="magnify" viewBox="0 0 3000 2999.999989" height="4000" preserveAspectRatio="xMidYMid meet" version="1.0"><defs><clipPath id="5dd931c205"><path d="M 1500 0 C 671.574219 0 0 671.574219 0 1500 C 0 2328.425781 671.574219 3000 1500 3000 C 2328.425781 3000 3000 2328.425781 3000 1500 C 3000 671.574219 2328.425781 0 1500 0 Z M 1500 0 " clip-rule="nonzero"/></clipPath><clipPath id="85d47f8233"><path d="M 0 0 L 3000 0 L 3000 3000 L 0 3000 Z M 0 0 " clip-rule="nonzero"/></clipPath><clipPath id="9e0d50b3f0"><path d="M 1500 0 C 671.574219 0 0 671.574219 0 1500 C 0 2328.425781 671.574219 3000 1500 3000 C 2328.425781 3000 3000 2328.425781 3000 1500 C 3000 671.574219 2328.425781 0 1500 0 Z M 1500 0 " clip-rule="nonzero"/></clipPath><clipPath id="9de78affe4"><rect x="0" width="3000" y="0" height="3000"/></clipPath><clipPath id="ff81e08754"><path d="M 63.695312 63.695312 L 2936 63.695312 L 2936 2936 L 63.695312 2936 Z M 63.695312 63.695312 " clip-rule="nonzero"/></clipPath></defs><g clip-path="url(#5dd931c205)"><g transform="matrix(1, 0, 0, 1, 0, 0.000000000000341558)"><g clip-path="url(#9de78affe4)"><g clip-path="url(#85d47f8233)"><g clip-path="url(#9e0d50b3f0)"><rect x="-660" width="4320" fill="#74aa9c" height="4319.999984" y="-659.999998" fill-opacity="1"/></g></g></g></g></g><g clip-path="url(#ff81e08754)"><path fill="#454545" d="M 384.5625 1961.703125 C 371.675781 1953.667969 359.128906 1945.480469 346.929688 1937.164062 C 167.632812 1814.894531 63.53125 1662.878906 63.53125 1499.78125 C 63.53125 1336.691406 167.632812 1184.679688 346.929688 1062.40625 C 359.128906 1054.085938 371.675781 1045.902344 384.5625 1037.859375 C 381.132812 1023.0625 378.050781 1008.402344 375.304688 993.894531 C 334.980469 780.652344 368.863281 599.558594 484.191406 484.230469 C 599.515625 368.90625 780.609375 335.023438 993.851562 375.347656 C 1008.359375 378.09375 1023.019531 381.175781 1037.824219 384.605469 C 1045.859375 371.71875 1054.046875 359.171875 1062.363281 346.972656 C 1184.636719 167.667969 1336.648438 63.574219 1499.746094 63.574219 C 1662.835938 63.574219 1814.851562 167.667969 1937.121094 346.972656 C 1945.441406 359.171875 1953.625 371.71875 1961.667969 384.605469 C 1976.464844 381.175781 1991.125 378.09375 2005.632812 375.347656 C 2218.875 335.023438 2399.976562 368.90625 2515.296875 484.230469 C 2630.621094 599.558594 2664.503906 780.652344 2624.179688 993.894531 C 2621.4375 1008.402344 2618.351562 1023.0625 2614.921875 1037.859375 C 2627.808594 1045.902344 2640.359375 1054.085938 2652.554688 1062.40625 C 2831.859375 1184.679688 2935.953125 1336.691406 2935.953125 1499.78125 C 2935.953125 1662.878906 2831.859375 1814.894531 2652.554688 1937.164062 C 2640.359375 1945.480469 2627.808594 1953.667969 2614.921875 1961.703125 C 2618.351562 1976.507812 2621.4375 1991.167969 2624.179688 2005.675781 C 2664.503906 2218.917969 2630.621094 2400.011719 2515.296875 2515.335938 C 2399.976562 2630.664062 2218.875 2664.546875 2005.632812 2624.222656 C 1991.125 2621.480469 1976.464844 2618.394531 1961.667969 2614.964844 C 1953.625 2627.851562 1945.441406 2640.402344 1937.121094 2652.597656 C 1814.851562 2831.898438 1662.835938 2935.996094 1499.746094 2935.996094 C 1336.648438 2935.996094 1184.636719 2831.898438 1062.363281 2652.597656 C 1054.046875 2640.402344 1045.859375 2627.851562 1037.824219 2614.964844 C 1023.019531 2618.394531 1008.359375 2621.480469 993.851562 2624.222656 C 780.609375 2664.546875 599.515625 2630.664062 484.191406 2515.335938 C 368.863281 2400.011719 334.980469 2218.917969 375.304688 2005.675781 C 378.050781 1991.167969 381.132812 1976.507812 384.5625 1961.703125 Z M 384.5625 1961.703125 " fill-opacity="1" fill-rule="evenodd"/></g><path fill="#74aa9c" d="M 903.53125 2165.109375 C 998.382812 2187.03125 1098.824219 2203.902344 1203.484375 2215.015625 C 1285.347656 2281.164062 1368.304688 2340.257812 1450.875 2391.824219 C 1316.667969 2468.722656 1184.746094 2524.59375 1061.78125 2557.121094 C 997.832031 2447.175781 944.054688 2314.382812 903.53125 2165.109375 Z M 776.324219 1295.488281 C 771.507812 1362.210938 769.019531 1430.425781 769.019531 1499.78125 C 769.019531 1569.144531 771.507812 1637.355469 776.324219 1704.082031 C 724.648438 1636.179688 677.960938 1567.792969 636.574219 1499.78125 C 677.960938 1431.773438 724.648438 1363.390625 776.324219 1295.492188 Z M 889.390625 889.433594 C 966.75 870.609375 1048.117188 855.265625 1132.671875 843.789062 C 1082.085938 887.570312 1032.089844 934.039062 983.046875 983.082031 C 933.996094 1032.132812 887.527344 1082.125 843.75 1132.707031 C 855.222656 1048.152344 870.570312 966.792969 889.390625 889.433594 Z M 1499.746094 636.609375 C 1567.753906 678.003906 1636.136719 724.691406 1704.039062 776.367188 C 1637.316406 771.550781 1569.101562 769.0625 1499.746094 769.0625 C 1430.382812 769.0625 1362.175781 771.550781 1295.449219 776.367188 C 1363.347656 724.691406 1431.738281 678.003906 1499.746094 636.609375 Z M 2362.917969 1499.78125 C 2321.523438 1567.792969 2274.835938 1636.179688 2223.160156 1704.082031 C 2227.976562 1637.355469 2230.46875 1569.144531 2230.46875 1499.78125 C 2230.46875 1430.425781 2227.976562 1362.210938 2223.160156 1295.492188 C 2274.835938 1363.390625 2321.523438 1431.773438 2362.917969 1499.78125 Z M 2110.09375 889.433594 C 2128.917969 966.792969 2144.261719 1048.152344 2155.738281 1132.707031 C 2111.957031 1082.125 2065.488281 1032.132812 2016.445312 983.082031 C 1967.394531 934.039062 1917.402344 887.570312 1866.820312 843.789062 C 1951.375 855.265625 2032.738281 870.609375 2110.09375 889.433594 Z M 1223.585938 833.085938 C 1312.863281 824.140625 1405.214844 819.453125 1499.746094 819.453125 C 1594.273438 819.453125 1686.621094 824.140625 1775.898438 833.085938 C 1845.351562 889.886719 1913.964844 951.878906 1980.808594 1018.71875 C 2047.648438 1085.5625 2109.640625 1154.175781 2166.445312 1223.628906 C 2175.386719 1312.90625 2180.074219 1405.257812 2180.074219 1499.78125 C 2180.074219 1594.316406 2175.386719 1686.664062 2166.445312 1775.941406 C 2109.640625 1845.390625 2047.648438 1914.007812 1980.808594 1980.851562 C 1913.964844 2047.691406 1845.351562 2109.675781 1775.898438 2166.488281 C 1686.621094 2175.425781 1594.273438 2180.109375 1499.746094 2180.109375 C 1405.214844 2180.109375 1312.863281 2175.425781 1223.585938 2166.488281 C 1154.136719 2109.675781 1085.519531 2047.691406 1018.675781 1980.851562 C 951.835938 1914.007812 889.851562 1845.390625 833.042969 1775.941406 C 824.101562 1686.664062 819.417969 1594.316406 819.417969 1499.78125 C 819.417969 1405.257812 824.101562 1312.90625 833.042969 1223.628906 C 889.851562 1154.175781 951.835938 1085.5625 1018.675781 1018.71875 C 1085.519531 951.878906 1154.136719 889.886719 1223.585938 833.082031 Z M 2110.09375 2110.136719 C 2032.738281 2128.957031 1951.375 2144.304688 1866.820312 2155.777344 C 1917.402344 2112 1967.394531 2065.53125 2016.445312 2016.480469 C 2065.488281 1967.4375 2111.957031 1917.445312 2155.738281 1866.859375 C 2144.261719 1951.410156 2128.917969 2032.78125 2110.09375 2110.136719 Z M 843.75 1866.859375 C 887.527344 1917.445312 933.996094 1967.4375 983.046875 2016.480469 C 1032.089844 2065.53125 1082.082031 2112 1132.671875 2155.777344 C 1048.117188 2144.304688 966.75 2128.957031 889.390625 2110.136719 C 870.570312 2032.78125 855.222656 1951.410156 843.75 1866.859375 Z M 1499.746094 2362.953125 C 1431.738281 2321.566406 1363.347656 2274.878906 1295.445312 2223.203125 C 1362.171875 2228.019531 1430.382812 2230.511719 1499.746094 2230.511719 C 1569.101562 2230.511719 1637.316406 2228.019531 1704.039062 2223.203125 C 1636.136719 2274.878906 1567.753906 2321.566406 1499.746094 2362.953125 Z M 1010.761719 430.183594 C 944.441406 547.582031 888.984375 689.179688 847.996094 848.039062 C 689.136719 889.027344 547.539062 944.476562 430.140625 1010.804688 C 428.242188 1001.992188 426.46875 993.238281 424.824219 984.535156 C 388.125 790.472656 414.871094 624.8125 519.824219 519.867188 C 624.777344 414.914062 790.429688 388.167969 984.492188 424.863281 C 993.195312 426.507812 1001.949219 428.285156 1010.761719 430.183594 Z M 607.703125 1548.652344 C 659.269531 1631.222656 718.363281 1714.179688 784.511719 1796.042969 C 795.625 1900.703125 812.5 2001.144531 834.421875 2096 C 685.148438 2055.476562 552.351562 2001.695312 442.40625 1937.746094 C 474.933594 1814.785156 530.804688 1682.859375 607.703125 1548.652344 Z M 1089.183594 2601.867188 C 1219.09375 2565.757812 1358.429688 2504.835938 1499.746094 2421.492188 C 1641.058594 2504.835938 1780.390625 2565.757812 1910.300781 2601.867188 C 1905.414062 2609.445312 1900.480469 2616.886719 1895.484375 2624.207031 C 1784.214844 2787.375 1648.164062 2885.597656 1499.746094 2885.597656 C 1351.324219 2885.597656 1215.269531 2787.375 1104 2624.207031 C 1099.011719 2616.886719 1094.070312 2609.445312 1089.183594 2601.867188 Z M 1988.722656 2569.386719 C 2055.050781 2451.988281 2110.5 2310.390625 2151.488281 2151.53125 C 2310.347656 2110.542969 2451.945312 2055.09375 2569.34375 1988.765625 C 2571.242188 1997.578125 2573.019531 2006.332031 2574.664062 2015.035156 C 2611.359375 2209.097656 2584.613281 2374.75 2479.660156 2479.703125 C 2374.714844 2584.648438 2209.054688 2611.402344 2015 2574.703125 C 2006.289062 2573.058594 1997.535156 2571.285156 1988.722656 2569.386719 Z M 2601.824219 1910.34375 C 2565.714844 1780.433594 2504.792969 1641.097656 2421.449219 1499.78125 C 2504.792969 1358.46875 2565.714844 1219.136719 2601.824219 1089.226562 C 2609.402344 1094.113281 2616.84375 1099.046875 2624.164062 1104.042969 C 2787.332031 1215.3125 2885.558594 1351.363281 2885.558594 1499.78125 C 2885.558594 1648.203125 2787.332031 1784.257812 2624.164062 1895.527344 C 2616.84375 1900.515625 2609.402344 1905.457031 2601.824219 1910.34375 Z M 397.660156 1089.226562 C 433.769531 1219.136719 494.691406 1358.46875 578.035156 1499.78125 C 494.691406 1641.097656 433.769531 1780.433594 397.660156 1910.34375 C 390.082031 1905.457031 382.640625 1900.515625 375.320312 1895.527344 C 212.152344 1784.257812 113.929688 1648.203125 113.929688 1499.78125 C 113.929688 1351.363281 212.152344 1215.3125 375.320312 1104.042969 C 382.640625 1099.046875 390.082031 1094.113281 397.660156 1089.226562 Z M 834.417969 903.570312 C 812.5 998.417969 795.625 1098.867188 784.511719 1203.527344 C 718.363281 1285.390625 659.269531 1368.34375 607.703125 1450.917969 C 530.804688 1316.710938 474.933594 1184.785156 442.40625 1061.820312 C 552.351562 997.867188 685.148438 944.09375 834.417969 903.570312 Z M 1910.300781 397.703125 C 1780.390625 433.8125 1641.058594 494.734375 1499.746094 578.078125 C 1358.429688 494.734375 1219.09375 433.8125 1089.183594 397.703125 C 1094.070312 390.125 1099.011719 382.683594 1104 375.363281 C 1215.269531 212.195312 1351.324219 113.96875 1499.746094 113.96875 C 1648.164062 113.96875 1784.214844 212.195312 1895.484375 375.363281 C 1900.480469 382.683594 1905.414062 390.125 1910.300781 397.703125 Z M 2569.34375 1010.804688 C 2451.945312 944.476562 2310.347656 889.027344 2151.488281 848.039062 C 2110.5 689.179688 2055.050781 547.582031 1988.722656 430.183594 C 1997.535156 428.285156 2006.289062 426.507812 2015 424.863281 C 2209.054688 388.167969 2374.714844 414.914062 2479.660156 519.867188 C 2584.613281 624.8125 2611.359375 790.472656 2574.664062 984.535156 C 2573.019531 993.238281 2571.242188 1001.992188 2569.34375 1010.804688 Z M 430.140625 1988.765625 C 547.539062 2055.09375 689.136719 2110.542969 847.996094 2151.53125 C 888.984375 2310.390625 944.441406 2451.988281 1010.761719 2569.386719 C 1001.949219 2571.285156 993.195312 2573.058594 984.492188 2574.703125 C 790.429688 2611.402344 624.777344 2584.65625 519.824219 2479.703125 C 414.871094 2374.75 388.125 2209.097656 424.824219 2015.035156 C 426.46875 2006.335938 428.242188 1997.578125 430.140625 1988.765625 Z M 2095.957031 834.464844 C 2001.109375 812.542969 1900.660156 795.667969 1796 784.554688 C 1714.136719 718.40625 1631.183594 659.3125 1548.609375 607.742188 C 1682.816406 530.84375 1814.742188 474.972656 1937.707031 442.449219 C 2001.660156 552.394531 2055.433594 685.191406 2095.957031 834.460938 Z M 2391.785156 1450.917969 C 2340.214844 1368.34375 2281.121094 1285.390625 2214.972656 1203.527344 C 2203.859375 1098.867188 2186.988281 998.417969 2165.066406 903.574219 C 2314.335938 944.097656 2447.132812 997.867188 2557.078125 1061.820312 C 2524.554688 1184.785156 2468.683594 1316.710938 2391.785156 1450.917969 Z M 2165.066406 2096 C 2186.988281 2001.144531 2203.859375 1900.703125 2214.972656 1796.042969 C 2281.121094 1714.179688 2340.214844 1631.222656 2391.785156 1548.652344 C 2468.683594 1682.859375 2524.554688 1814.785156 2557.078125 1937.746094 C 2447.132812 2001.695312 2314.339844 2055.476562 2165.066406 2096 Z M 1548.609375 2391.824219 C 1631.183594 2340.257812 1714.136719 2281.164062 1796 2215.015625 C 1900.660156 2203.902344 2001.109375 2187.03125 2095.957031 2165.109375 C 2055.433594 2314.382812 2001.660156 2447.175781 1937.707031 2557.121094 C 1814.742188 2524.59375 1682.816406 2468.722656 1548.609375 2391.824219 Z M 1450.875 607.742188 C 1368.304688 659.3125 1285.347656 718.40625 1203.484375 784.554688 C 1098.824219 795.667969 998.382812 812.542969 903.527344 834.464844 C 944.050781 685.191406 997.832031 552.394531 1061.78125 442.449219 C 1184.742188 474.972656 1316.667969 530.84375 1450.875 607.742188 Z M 1450.875 607.742188 " fill-opacity="1" fill-rule="evenodd"/><path fill="#454545" d="M 1039.394531 1827.308594 L 1229.164062 1165.4375 L 1599.847656 1165.4375 L 1619.332031 1827.308594 L 1412.566406 1827.308594 L 1410.632812 1720.503906 L 1279 1720.503906 L 1251.75 1827.308594 Z M 1039.394531 1827.308594 " fill-opacity="1" fill-rule="evenodd"/><path fill="#ffffff" d="M 1106.269531 1776.914062 L 1212.597656 1776.914062 L 1239.847656 1670.113281 L 1460.125 1670.113281 L 1462.058594 1776.914062 L 1567.429688 1776.914062 L 1550.914062 1215.828125 L 1267.140625 1215.828125 Z M 1106.269531 1776.914062 " fill-opacity="1" fill-rule="evenodd"/><path fill="#454545" d="M 1358.328125 1286.359375 L 1448.375 1286.359375 L 1471.203125 1613.925781 L 1248.449219 1613.925781 Z M 1358.328125 1286.359375 " fill-opacity="1" fill-rule="evenodd"/><path fill="#74aa9c" d="M 1392.386719 1336.757812 L 1318.011719 1563.535156 L 1417.355469 1563.535156 L 1402.324219 1336.757812 Z M 1392.386719 1336.757812 " fill-opacity="1" fill-rule="evenodd"/><path fill="#454545" d="M 1691.792969 1827.308594 L 1662.535156 1165.4375 L 1873.648438 1165.4375 L 1902.898438 1827.308594 Z M 1691.792969 1827.308594 " fill-opacity="1" fill-rule="evenodd"/><path fill="#ffffff" d="M 1740.007812 1776.914062 L 1850.234375 1776.914062 C 1850.234375 1776.914062 1825.433594 1215.828125 1825.433594 1215.828125 L 1715.207031 1215.828125 Z M 1740.007812 1776.914062 " fill-opacity="1" fill-rule="evenodd"/></svg>