<svg xmlns="http://www.w3.org/2000/svg" xmlns:xlink="http://www.w3.org/1999/xlink" width="4000" zoomAndPan="magnify" viewBox="0 0 3000 2999.999989" height="4000" preserveAspectRatio="xMidYMid meet" version="1.0"><defs><clipPath id="940a7623ee"><path d="M 1500 0 C 671.574219 0 0 671.574219 0 1500 C 0 2328.425781 671.574219 3000 1500 3000 C 2328.425781 3000 3000 2328.425781 3000 1500 C 3000 671.574219 2328.425781 0 1500 0 Z M 1500 0 " clip-rule="nonzero"/></clipPath><clipPath id="b1957e8070"><path d="M 0 0 L 3000 0 L 3000 3000 L 0 3000 Z M 0 0 " clip-rule="nonzero"/></clipPath><clipPath id="f72d247a8b"><path d="M 1500 0 C 671.574219 0 0 671.574219 0 1500 C 0 2328.425781 671.574219 3000 1500 3000 C 2328.425781 3000 3000 2328.425781 3000 1500 C 3000 671.574219 2328.425781 0 1500 0 Z M 1500 0 " clip-rule="nonzero"/></clipPath><clipPath id="e7ec587a6b"><rect x="0" width="3000" y="0" height="3000"/></clipPath></defs><g clip-path="url(#940a7623ee)"><g transform="matrix(1, 0, 0, 1, 0, 0.000000000000341558)"><g clip-path="url(#e7ec587a6b)"><g clip-path="url(#b1957e8070)"><g clip-path="url(#f72d247a8b)"><rect x="-660" width="4320" fill="#413533" height="4319.999984" y="-659.999998" fill-opacity="1"/></g></g></g></g></g><path fill="#ed524e" d="M 1540.035156 1460.050781 C 1449.816406 1369.828125 1400.164062 1249.863281 1400.191406 1122.125 C 1400.230469 994.25 1450.082031 873.886719 1540.566406 783.203125 L 1828.21875 494.96875 C 2015.003906 307.78125 2318.941406 307 2505.730469 493.234375 C 2505.890625 493.394531 2506.078125 493.582031 2506.25 493.753906 C 2596.347656 583.851562 2645.96875 703.800781 2645.992188 831.613281 C 2645.976562 959.558594 2596.160156 1079.9375 2505.734375 1170.589844 L 2218.058594 1458.820312 C 2031.269531 1646.011719 1727.335938 1646.792969 1540.546875 1460.558594 C 1540.382812 1460.398438 1540.210938 1460.222656 1540.035156 1460.050781 Z M 2368.957031 631.027344 C 2368.859375 630.929688 2368.757812 630.832031 2368.648438 630.71875 C 2257.640625 520.046875 2076.851562 520.667969 1965.652344 632.121094 L 1677.992188 920.359375 C 1624.0625 974.390625 1594.355469 1046.054688 1594.335938 1122.171875 C 1594.328125 1198.148438 1623.585938 1268.375 1677.628906 1323.074219 C 1788.632812 1433.746094 1969.421875 1433.125 2080.625 1321.671875 L 2368.28125 1033.457031 C 2422.15625 979.457031 2451.832031 907.773438 2451.839844 831.621094 C 2451.835938 755.703125 2422.398438 684.46875 2368.957031 631.027344 Z M 2368.957031 631.027344 " fill-opacity="1" fill-rule="nonzero"/><path fill="#fdc72e" d="M 493.847656 2506.246094 C 403.640625 2416.035156 353.976562 2296.058594 354.007812 2168.339844 C 354.046875 2040.464844 403.902344 1920.101562 494.390625 1829.410156 L 782.035156 1541.183594 C 968.824219 1353.996094 1272.757812 1353.214844 1459.546875 1539.449219 C 1459.707031 1539.609375 1459.894531 1539.796875 1460.070312 1539.96875 C 1550.164062 1630.066406 1599.785156 1750.015625 1599.808594 1877.824219 C 1599.808594 2005.761719 1549.992188 2126.136719 1459.550781 2216.804688 L 1171.878906 2505.03125 C 985.09375 2692.21875 681.15625 2693 494.367188 2506.765625 C 494.207031 2506.605469 494.019531 2506.417969 493.847656 2506.246094 Z M 1322.773438 1677.242188 C 1322.675781 1677.144531 1322.578125 1677.042969 1322.464844 1676.933594 C 1211.457031 1566.257812 1030.671875 1566.882812 919.46875 1678.335938 L 631.816406 1966.566406 C 577.886719 2020.597656 548.171875 2092.269531 548.160156 2168.378906 C 548.148438 2244.214844 577.601562 2315.433594 631.140625 2368.972656 C 631.242188 2369.070312 631.339844 2369.171875 631.453125 2369.28125 C 742.457031 2479.953125 923.246094 2479.332031 1034.445312 2367.878906 L 1322.101562 2079.671875 C 1375.980469 2025.664062 1405.648438 1953.988281 1405.65625 1877.835938 C 1405.652344 1801.917969 1376.214844 1730.683594 1322.773438 1677.242188 Z M 1322.773438 1677.242188 " fill-opacity="1" fill-rule="nonzero"/><path fill="#70c1f9" d="M 1238.425781 1839.007812 L 1161.0625 1761.644531 C 1144.515625 1745.097656 1144.515625 1718.261719 1161.066406 1701.710938 L 1701.75 1161.011719 C 1718.300781 1144.460938 1745.132812 1144.460938 1761.679688 1161.011719 L 1839.042969 1238.371094 C 1855.589844 1254.921875 1855.589844 1281.753906 1839.039062 1298.304688 L 1298.355469 1839.007812 C 1281.804688 1855.558594 1254.972656 1855.558594 1238.425781 1839.007812 Z M 1238.425781 1839.007812 " fill-opacity="1" fill-rule="nonzero"/><path fill="#4f5d99" d="M 935.242188 875.199219 L 1148.890625 1088.835938 C 1155.175781 1095.121094 1155.371094 1105.453125 1149.085938 1111.738281 L 1111.992188 1148.832031 C 1105.707031 1155.117188 1095.175781 1155.117188 1088.890625 1148.835938 L 875.242188 935.199219 C 868.957031 928.914062 869.15625 918.582031 875.441406 912.296875 L 912.535156 875.199219 C 918.820312 868.914062 928.957031 868.914062 935.242188 875.199219 Z M 935.242188 875.199219 " fill-opacity="1" fill-rule="nonzero"/><path fill="#4f5d99" d="M 685.410156 1181.804688 L 987.53125 1181.792969 C 996.417969 1181.792969 1003.863281 1188.957031 1003.863281 1197.847656 L 1003.855469 1250.304688 C 1003.855469 1259.191406 996.40625 1266.640625 987.519531 1266.640625 L 685.398438 1266.652344 C 676.511719 1266.652344 669.347656 1259.207031 669.347656 1250.320312 L 669.355469 1197.859375 C 669.355469 1188.972656 676.523438 1181.804688 685.410156 1181.804688 Z M 685.410156 1181.804688 " fill-opacity="1" fill-rule="nonzero"/><path fill="#4f5d99" d="M 1181.847656 685.363281 L 1181.84375 987.476562 C 1181.84375 996.363281 1189.011719 1003.808594 1197.898438 1003.808594 L 1250.359375 1003.800781 C 1259.246094 1003.796875 1266.695312 996.351562 1266.695312 987.464844 L 1266.699219 685.351562 C 1266.699219 676.464844 1259.253906 669.300781 1250.363281 669.300781 L 1197.902344 669.308594 C 1189.015625 669.308594 1181.847656 676.476562 1181.847656 685.363281 Z M 1181.847656 685.363281 " fill-opacity="1" fill-rule="nonzero"/><path fill="#4f5d99" d="M 2124.855469 2064.804688 L 1911.214844 1851.160156 C 1904.933594 1844.875 1894.597656 1844.675781 1888.3125 1850.960938 L 1851.21875 1888.058594 C 1844.933594 1894.339844 1844.933594 1904.871094 1851.21875 1911.15625 L 2064.855469 2124.804688 C 2071.140625 2131.089844 2081.472656 2130.890625 2087.757812 2124.605469 L 2124.851562 2087.511719 C 2131.136719 2081.226562 2131.136719 2071.089844 2124.855469 2064.804688 Z M 2124.855469 2064.804688 " fill-opacity="1" fill-rule="nonzero"/><path fill="#4f5d99" d="M 1818.25 2314.636719 L 1818.261719 2012.515625 C 1818.261719 2003.628906 1811.09375 1996.183594 1802.207031 1996.1875 L 1749.746094 1996.191406 C 1740.859375 1996.195312 1733.414062 2003.640625 1733.414062 2012.527344 L 1733.402344 2314.648438 C 1733.402344 2323.535156 1740.847656 2330.703125 1749.734375 2330.699219 L 1802.195312 2330.691406 C 1811.082031 2330.691406 1818.25 2323.523438 1818.25 2314.636719 Z M 1818.25 2314.636719 " fill-opacity="1" fill-rule="nonzero"/><path fill="#4f5d99" d="M 2314.6875 1818.195312 L 2012.574219 1818.203125 C 2003.6875 1818.203125 1996.242188 1811.035156 1996.242188 1802.148438 L 1996.25 1749.6875 C 1996.253906 1740.800781 2003.699219 1733.351562 2012.585938 1733.351562 L 2314.699219 1733.347656 C 2323.585938 1733.347656 2330.75 1740.792969 2330.75 1749.679688 L 2330.742188 1802.140625 C 2330.742188 1811.03125 2323.574219 1818.195312 2314.6875 1818.195312 Z M 2314.6875 1818.195312 " fill-opacity="1" fill-rule="nonzero"/></svg>