<svg xmlns="http://www.w3.org/2000/svg" xmlns:xlink="http://www.w3.org/1999/xlink" width="4000" zoomAndPan="magnify" viewBox="0 0 3000 2999.999989" height="4000" preserveAspectRatio="xMidYMid meet" version="1.0"><defs><clipPath id="61a4e82084"><path d="M 1500 0 C 671.574219 0 0 671.574219 0 1500 C 0 2328.425781 671.574219 3000 1500 3000 C 2328.425781 3000 3000 2328.425781 3000 1500 C 3000 671.574219 2328.425781 0 1500 0 Z M 1500 0 " clip-rule="nonzero"/></clipPath><clipPath id="a2cb74928a"><path d="M 0 0 L 3000 0 L 3000 3000 L 0 3000 Z M 0 0 " clip-rule="nonzero"/></clipPath><clipPath id="87d7fd939a"><path d="M 1500 0 C 671.574219 0 0 671.574219 0 1500 C 0 2328.425781 671.574219 3000 1500 3000 C 2328.425781 3000 3000 2328.425781 3000 1500 C 3000 671.574219 2328.425781 0 1500 0 Z M 1500 0 " clip-rule="nonzero"/></clipPath><clipPath id="afe9e2e683"><rect x="0" width="3000" y="0" height="3000"/></clipPath><clipPath id="27efa3de5f"><path d="M 415.578125 499.355469 L 2560 499.355469 L 2560 2433 L 415.578125 2433 Z M 415.578125 499.355469 " clip-rule="nonzero"/></clipPath><clipPath id="2e78766b7c"><path d="M 415.578125 831 L 2560 831 L 2560 901 L 415.578125 901 Z M 415.578125 831 " clip-rule="nonzero"/></clipPath></defs><g clip-path="url(#61a4e82084)"><g transform="matrix(1, 0, 0, 1, 0, 0.000000000000341558)"><g clip-path="url(#afe9e2e683)"><g clip-path="url(#a2cb74928a)"><g clip-path="url(#87d7fd939a)"><rect x="-660" width="4320" fill="#24a8a8" height="4319.999984" y="-659.999998" fill-opacity="1"/></g></g></g></g></g><path fill="#a7eaf9" d="M 2176.957031 2223.84375 L 2316.210938 2223.84375 L 2316.210938 1666.84375 L 2176.957031 1666.847656 L 2176.957031 2223.847656 Z M 1898.453125 2223.84375 L 2037.703125 2223.84375 L 2037.703125 1806.09375 L 1898.453125 1806.09375 Z M 1619.945312 2223.84375 L 1759.199219 2223.84375 L 1759.199219 1945.34375 L 1619.945312 1945.34375 Z M 2525.089844 866.152344 L 2525.089844 2397.90625 L 436.289062 2397.90625 L 436.289062 866.152344 Z M 1341.433594 1388.34375 C 1341.433594 1331.8125 1329.191406 1278.144531 1307.1875 1229.84375 C 1246.917969 1097.453125 1113.453125 1005.40625 958.488281 1005.40625 C 746.984375 1005.40625 575.542969 1176.859375 575.542969 1388.34375 C 575.542969 1599.84375 746.984375 1771.285156 958.488281 1771.285156 C 1169.980469 1771.28125 1341.433594 1599.84375 1341.433594 1388.34375 Z M 714.796875 2258.65625 L 714.796875 2119.40625 L 575.542969 2119.40625 L 575.542969 2258.65625 Z M 714.796875 1980.152344 L 714.796875 1840.902344 L 575.542969 1840.90625 L 575.542969 1980.15625 Z M 714.796875 1980.152344 " fill-opacity="1" fill-rule="evenodd"/><path fill="#ff5b5b" d="M 436.292969 518.03125 L 2525.089844 518.03125 L 2525.089844 866.160156 L 436.292969 866.160156 Z M 436.292969 518.03125 " fill-opacity="1" fill-rule="evenodd"/><path fill="#ffd300" d="M 2176.761719 1666.613281 L 2315.800781 1666.613281 L 2315.800781 2223.808594 L 2176.761719 2223.808594 Z M 2176.761719 1666.613281 " fill-opacity="1" fill-rule="evenodd"/><path fill="#ffd300" d="M 1898.6875 1806.175781 L 2037.726562 1806.175781 L 2037.726562 2223.808594 L 1898.6875 2223.808594 Z M 1898.6875 1806.175781 " fill-opacity="1" fill-rule="evenodd"/><path fill="#4d4eda" d="M 1620.082031 1945.210938 L 1759.121094 1945.210938 L 1759.121094 2223.808594 L 1620.082031 2223.808594 Z M 1620.082031 1945.210938 " fill-opacity="1" fill-rule="evenodd"/><path fill="#ffd300" d="M 1307.191406 1229.847656 C 1329.195312 1278.152344 1341.4375 1331.820312 1341.4375 1388.347656 C 1341.4375 1599.847656 1169.984375 1771.285156 958.492188 1771.285156 C 746.984375 1771.285156 575.542969 1599.847656 575.542969 1388.347656 C 575.542969 1176.859375 746.984375 1005.40625 958.492188 1005.40625 L 958.492188 1388.347656 Z M 1307.191406 1229.847656 " fill-opacity="1" fill-rule="evenodd"/><path fill="#ff5b5b" d="M 1307.191406 1229.847656 L 958.492188 1388.347656 L 958.492188 1005.410156 C 1113.453125 1005.410156 1246.917969 1097.457031 1307.191406 1229.847656 Z M 1307.191406 1229.847656 " fill-opacity="1" fill-rule="evenodd"/><path fill="#4d4eda" d="M 575.453125 2119.664062 L 714.488281 2119.664062 L 714.488281 2258.699219 L 575.453125 2258.699219 Z M 575.453125 2119.664062 " fill-opacity="1" fill-rule="evenodd"/><path fill="#4d4eda" d="M 575.453125 1841.066406 L 714.488281 1841.066406 L 714.488281 1980.101562 L 575.453125 1980.101562 Z M 575.453125 1841.066406 " fill-opacity="1" fill-rule="evenodd"/><g clip-path="url(#27efa3de5f)"><path fill="#333333" d="M 2525.089844 2432.722656 L 436.292969 2432.722656 C 417.066406 2432.722656 401.480469 2417.136719 401.480469 2397.914062 L 401.480469 518.03125 C 401.480469 498.804688 417.066406 483.222656 436.292969 483.222656 L 2525.089844 483.21875 C 2544.320312 483.21875 2559.902344 498.804688 2559.902344 518.03125 L 2559.902344 2397.910156 C 2559.90625 2417.136719 2544.320312 2432.722656 2525.089844 2432.722656 Z M 471.105469 2363.097656 L 2490.28125 2363.097656 L 2490.28125 552.839844 L 471.105469 552.839844 Z M 471.105469 2363.097656 " fill-opacity="1" fill-rule="evenodd"/></g><g clip-path="url(#2e78766b7c)"><path fill="#333333" d="M 2525.089844 900.96875 L 436.292969 900.96875 C 417.066406 900.96875 401.480469 885.382812 401.480469 866.160156 C 401.480469 846.933594 417.066406 831.347656 436.292969 831.347656 L 2525.089844 831.34375 C 2544.320312 831.34375 2559.902344 846.929688 2559.902344 866.15625 C 2559.902344 885.382812 2544.320312 900.96875 2525.089844 900.96875 Z M 2525.089844 900.96875 " fill-opacity="1" fill-rule="evenodd"/></g><path fill="#333333" d="M 2525.089844 726.90625 L 1480.691406 726.90625 C 1461.464844 726.90625 1445.878906 711.320312 1445.878906 692.09375 C 1445.878906 672.871094 1461.464844 657.285156 1480.691406 657.285156 L 2525.089844 657.28125 C 2544.320312 657.28125 2559.902344 672.867188 2559.902344 692.09375 C 2559.902344 711.316406 2544.320312 726.90625 2525.089844 726.90625 Z M 2525.089844 726.90625 " fill-opacity="1" fill-rule="evenodd"/><path fill="#333333" d="M 958.492188 1806.09375 C 846.898438 1806.09375 741.988281 1762.644531 663.085938 1683.742188 C 584.1875 1604.839844 540.730469 1499.933594 540.730469 1388.34375 C 540.730469 1276.761719 584.183594 1171.855469 663.085938 1092.953125 C 741.988281 1014.046875 846.898438 970.59375 958.492188 970.59375 C 1040.222656 970.59375 1119.398438 994.207031 1187.457031 1038.875 C 1253.746094 1082.386719 1306.105469 1143.4375 1338.878906 1215.421875 C 1363.679688 1269.863281 1376.253906 1328.042969 1376.253906 1388.34375 C 1376.253906 1499.933594 1332.796875 1604.839844 1253.890625 1683.742188 C 1174.984375 1762.644531 1070.078125 1806.09375 958.492188 1806.09375 Z M 958.492188 1040.222656 C 766.53125 1040.222656 610.359375 1196.390625 610.359375 1388.347656 C 610.359375 1580.304688 766.53125 1736.472656 958.492188 1736.472656 C 1150.453125 1736.472656 1306.625 1580.304688 1306.625 1388.347656 C 1306.625 1338.070312 1296.15625 1289.601562 1275.507812 1244.28125 C 1275.507812 1244.28125 1275.507812 1244.277344 1275.503906 1244.273438 C 1219.074219 1120.316406 1094.640625 1040.222656 958.492188 1040.222656 Z M 958.492188 1040.222656 " fill-opacity="1" fill-rule="evenodd"/><path fill="#333333" d="M 958.492188 1423.160156 C 951.90625 1423.160156 945.351562 1421.289062 939.640625 1417.617188 C 929.6875 1411.207031 923.675781 1400.183594 923.675781 1388.347656 L 923.675781 1005.40625 C 923.675781 986.179688 939.261719 970.597656 958.488281 970.597656 C 977.714844 970.597656 993.300781 986.183594 993.300781 1005.40625 L 993.300781 1334.28125 L 1292.78125 1198.15625 C 1310.285156 1190.199219 1330.921875 1197.941406 1338.878906 1215.441406 C 1346.835938 1232.945312 1339.097656 1253.582031 1321.59375 1261.539062 L 972.894531 1420.039062 C 968.304688 1422.125 963.390625 1423.160156 958.492188 1423.160156 Z M 958.492188 1423.160156 " fill-opacity="1" fill-rule="evenodd"/><path fill="#333333" d="M 1759.199219 2258.660156 C 1739.972656 2258.660156 1724.386719 2243.074219 1724.386719 2223.847656 L 1724.386719 1980.160156 L 1654.761719 1980.160156 L 1654.761719 2223.847656 C 1654.761719 2243.074219 1639.171875 2258.660156 1619.949219 2258.660156 C 1600.722656 2258.660156 1585.136719 2243.074219 1585.136719 2223.847656 L 1585.136719 1945.347656 C 1585.136719 1926.121094 1600.722656 1910.535156 1619.949219 1910.535156 L 1759.199219 1910.535156 C 1778.429688 1910.535156 1794.011719 1926.121094 1794.011719 1945.34375 L 1794.011719 2223.84375 C 1794.015625 2243.074219 1778.429688 2258.660156 1759.199219 2258.660156 Z M 1759.199219 2258.660156 " fill-opacity="1" fill-rule="evenodd"/><path fill="#333333" d="M 2037.703125 2258.660156 C 2018.476562 2258.660156 2002.890625 2243.074219 2002.890625 2223.847656 L 2002.890625 1840.910156 L 1933.265625 1840.910156 L 1933.265625 2223.847656 C 1933.265625 2243.078125 1917.675781 2258.660156 1898.453125 2258.660156 C 1879.226562 2258.660156 1863.640625 2243.074219 1863.640625 2223.847656 L 1863.640625 1806.097656 C 1863.640625 1786.871094 1879.226562 1771.285156 1898.453125 1771.285156 L 2037.703125 1771.285156 C 2056.929688 1771.285156 2072.515625 1786.871094 2072.515625 1806.097656 L 2072.515625 2223.847656 C 2072.519531 2243.074219 2056.929688 2258.660156 2037.703125 2258.660156 Z M 2037.703125 2258.660156 " fill-opacity="1" fill-rule="evenodd"/><path fill="#333333" d="M 2316.210938 2258.660156 C 2296.984375 2258.660156 2281.398438 2243.074219 2281.398438 2223.847656 L 2281.398438 1701.660156 L 2211.773438 1701.660156 L 2211.773438 2223.847656 C 2211.773438 2243.074219 2196.1875 2258.660156 2176.960938 2258.660156 C 2157.734375 2258.660156 2142.148438 2243.070312 2142.148438 2223.847656 L 2142.148438 1666.847656 C 2142.148438 1647.621094 2157.734375 1632.035156 2176.960938 1632.035156 L 2316.214844 1632.035156 C 2335.441406 1632.035156 2351.023438 1647.621094 2351.023438 1666.847656 L 2351.023438 2223.847656 C 2351.023438 2243.074219 2335.441406 2258.660156 2316.214844 2258.660156 Z M 2316.210938 2258.660156 " fill-opacity="1" fill-rule="evenodd"/><path fill="#333333" d="M 2385.835938 2258.660156 L 1550.316406 2258.660156 C 1531.089844 2258.660156 1515.503906 2243.074219 1515.503906 2223.847656 C 1515.503906 2204.625 1531.089844 2189.039062 1550.316406 2189.039062 L 2385.835938 2189.035156 C 2405.066406 2189.035156 2420.648438 2204.621094 2420.648438 2223.847656 C 2420.648438 2243.074219 2405.066406 2258.660156 2385.835938 2258.660156 Z M 2385.835938 2258.660156 " fill-opacity="1" fill-rule="evenodd"/><path fill="#333333" d="M 2316.210938 1040.222656 L 1585.132812 1040.222656 C 1565.90625 1040.222656 1550.320312 1024.632812 1550.320312 1005.410156 C 1550.320312 986.183594 1565.910156 970.597656 1585.132812 970.597656 L 2316.210938 970.597656 C 2335.441406 970.597656 2351.023438 986.183594 2351.023438 1005.40625 C 2351.023438 1024.632812 2335.441406 1040.222656 2316.210938 1040.222656 Z M 2316.210938 1040.222656 " fill-opacity="1" fill-rule="evenodd"/><path fill="#333333" d="M 2316.210938 1179.472656 L 1585.132812 1179.472656 C 1565.90625 1179.472656 1550.320312 1163.886719 1550.320312 1144.660156 C 1550.320312 1125.4375 1565.910156 1109.847656 1585.132812 1109.847656 L 2316.210938 1109.847656 C 2335.441406 1109.847656 2351.023438 1125.433594 2351.023438 1144.660156 C 2351.023438 1163.882812 2335.441406 1179.472656 2316.210938 1179.472656 Z M 2316.210938 1179.472656 " fill-opacity="1" fill-rule="evenodd"/><path fill="#333333" d="M 2385.835938 1318.71875 L 1480.691406 1318.71875 C 1461.464844 1318.71875 1445.878906 1303.132812 1445.878906 1283.90625 C 1445.878906 1264.683594 1461.464844 1249.09375 1480.691406 1249.09375 L 2385.835938 1249.09375 C 2405.066406 1249.09375 2420.648438 1264.679688 2420.648438 1283.90625 C 2420.648438 1303.128906 2405.066406 1318.71875 2385.835938 1318.71875 Z M 2385.835938 1318.71875 " fill-opacity="1" fill-rule="evenodd"/><path fill="#333333" d="M 2385.835938 1457.96875 L 1480.691406 1457.96875 C 1461.464844 1457.96875 1445.878906 1442.382812 1445.878906 1423.160156 C 1445.878906 1403.933594 1461.464844 1388.347656 1480.691406 1388.347656 L 2385.835938 1388.34375 C 2405.066406 1388.34375 2420.648438 1403.929688 2420.648438 1423.15625 C 2420.648438 1442.382812 2405.066406 1457.96875 2385.835938 1457.96875 Z M 2385.835938 1457.96875 " fill-opacity="1" fill-rule="evenodd"/><path fill="#333333" d="M 714.800781 2014.96875 L 575.546875 2014.96875 C 556.320312 2014.96875 540.734375 1999.382812 540.734375 1980.160156 L 540.734375 1840.90625 C 540.734375 1821.679688 556.320312 1806.097656 575.546875 1806.097656 L 714.800781 1806.09375 C 734.027344 1806.09375 749.613281 1821.679688 749.613281 1840.90625 L 749.613281 1980.15625 C 749.613281 1999.382812 734.027344 2014.96875 714.800781 2014.96875 Z M 610.359375 1945.34375 L 679.988281 1945.34375 L 679.988281 1875.71875 L 610.359375 1875.71875 Z M 610.359375 1945.34375 " fill-opacity="1" fill-rule="evenodd"/><path fill="#333333" d="M 714.800781 2293.472656 L 575.546875 2293.472656 C 556.320312 2293.472656 540.734375 2277.886719 540.734375 2258.660156 L 540.734375 2119.410156 C 540.734375 2100.183594 556.320312 2084.597656 575.546875 2084.597656 L 714.800781 2084.597656 C 734.027344 2084.597656 749.613281 2100.183594 749.613281 2119.410156 L 749.613281 2258.660156 C 749.613281 2277.886719 734.027344 2293.472656 714.800781 2293.472656 Z M 610.359375 2223.847656 L 679.988281 2223.847656 L 679.988281 2154.222656 L 610.359375 2154.222656 Z M 610.359375 2223.847656 " fill-opacity="1" fill-rule="evenodd"/><path fill="#333333" d="M 1376.253906 1945.347656 L 819.242188 1945.347656 C 800.015625 1945.347656 784.429688 1929.761719 784.429688 1910.535156 C 784.429688 1891.3125 800.015625 1875.722656 819.242188 1875.722656 L 1376.253906 1875.722656 C 1395.480469 1875.722656 1411.066406 1891.308594 1411.066406 1910.535156 C 1411.066406 1929.757812 1395.480469 1945.347656 1376.253906 1945.347656 Z M 1376.253906 1945.347656 " fill-opacity="1" fill-rule="evenodd"/><path fill="#333333" d="M 1376.253906 2154.222656 L 819.242188 2154.222656 C 800.015625 2154.222656 784.429688 2138.632812 784.429688 2119.410156 C 784.429688 2100.183594 800.015625 2084.597656 819.242188 2084.597656 L 1376.253906 2084.597656 C 1395.480469 2084.597656 1411.066406 2100.183594 1411.066406 2119.410156 C 1411.066406 2138.632812 1395.480469 2154.222656 1376.253906 2154.222656 Z M 1376.253906 2154.222656 " fill-opacity="1" fill-rule="evenodd"/><path fill="#333333" d="M 1376.253906 2293.472656 L 819.242188 2293.472656 C 800.015625 2293.472656 784.429688 2277.886719 784.429688 2258.660156 C 784.429688 2239.4375 800.015625 2223.847656 819.242188 2223.847656 L 1376.253906 2223.847656 C 1395.480469 2223.847656 1411.066406 2239.433594 1411.066406 2258.660156 C 1411.066406 2277.882812 1395.480469 2293.472656 1376.253906 2293.472656 Z M 1376.253906 2293.472656 " fill-opacity="1" fill-rule="evenodd"/><path fill="#1e1e63" d="M 567.648438 725.464844 C 566.515625 725.464844 565.355469 725.40625 564.222656 725.289062 C 563.09375 725.171875 561.960938 725 560.84375 724.78125 C 559.742188 724.5625 558.625 724.273438 557.535156 723.941406 C 556.464844 723.621094 555.375 723.230469 554.332031 722.792969 C 553.285156 722.359375 552.242188 721.867188 551.253906 721.34375 C 550.253906 720.804688 549.269531 720.226562 548.324219 719.589844 C 547.367188 718.964844 546.453125 718.285156 545.570312 717.570312 C 544.683594 716.847656 543.828125 716.0625 543.03125 715.265625 C 542.234375 714.46875 541.449219 713.609375 540.722656 712.726562 C 540.015625 711.84375 539.332031 710.929688 538.707031 709.972656 C 538.066406 709.027344 537.488281 708.042969 536.953125 707.039062 C 536.429688 706.039062 535.9375 705.007812 535.5 703.964844 C 535.066406 702.917969 534.675781 701.832031 534.355469 700.757812 C 534.023438 699.671875 533.730469 698.554688 533.515625 697.453125 C 533.296875 696.335938 533.121094 695.203125 533.007812 694.070312 C 532.890625 692.941406 532.832031 691.78125 532.832031 690.648438 C 532.832031 689.515625 532.890625 688.355469 533.007812 687.222656 C 533.121094 686.09375 533.296875 684.960938 533.515625 683.84375 C 533.734375 682.742188 534.023438 681.625 534.355469 680.539062 C 534.671875 679.464844 535.066406 678.378906 535.5 677.332031 C 535.9375 676.289062 536.429688 675.242188 536.953125 674.257812 C 537.488281 673.253906 538.070312 672.269531 538.707031 671.324219 C 539.332031 670.367188 540.011719 669.453125 540.722656 668.570312 C 541.449219 667.683594 542.234375 666.828125 543.03125 666.03125 C 543.828125 665.230469 544.683594 664.449219 545.570312 663.726562 C 546.453125 663.015625 547.367188 662.332031 548.324219 661.707031 C 549.269531 661.070312 550.253906 660.492188 551.253906 659.953125 C 552.242188 659.417969 553.285156 658.9375 554.332031 658.503906 C 555.375 658.066406 556.464844 657.675781 557.535156 657.355469 C 558.625 657.023438 559.742188 656.730469 560.84375 656.515625 C 561.960938 656.28125 563.09375 656.125 564.222656 656.007812 C 566.5 655.773438 568.792969 655.773438 571.070312 656.007812 C 572.203125 656.125 573.335938 656.28125 574.453125 656.515625 C 575.554688 656.734375 576.671875 657.023438 577.757812 657.355469 C 578.832031 657.675781 579.917969 658.066406 580.964844 658.503906 C 582.007812 658.9375 583.054688 659.417969 584.039062 659.953125 C 585.042969 660.492188 586.027344 661.070312 586.972656 661.707031 C 587.929688 662.332031 588.84375 663.011719 589.726562 663.726562 C 590.613281 664.449219 591.46875 665.234375 592.265625 666.03125 C 593.078125 666.828125 593.847656 667.683594 594.570312 668.570312 C 595.28125 669.453125 595.964844 670.367188 596.589844 671.324219 C 597.226562 672.269531 597.808594 673.253906 598.34375 674.257812 C 598.878906 675.242188 599.359375 676.289062 599.792969 677.332031 C 600.230469 678.378906 600.621094 679.464844 600.941406 680.539062 C 601.273438 681.625 601.566406 682.742188 601.78125 683.84375 C 602.015625 684.960938 602.171875 686.09375 602.289062 687.222656 C 602.40625 688.355469 602.464844 689.515625 602.464844 690.648438 C 602.464844 691.78125 602.40625 692.941406 602.289062 694.070312 C 602.171875 695.203125 602.015625 696.335938 601.78125 697.453125 C 601.5625 698.554688 601.273438 699.671875 600.941406 700.757812 C 600.621094 701.832031 600.230469 702.917969 599.792969 703.964844 C 599.359375 705.007812 598.878906 706.039062 598.34375 707.039062 C 597.808594 708.042969 597.226562 709.027344 596.589844 709.972656 C 595.964844 710.929688 595.285156 711.84375 594.570312 712.726562 C 593.847656 713.609375 593.078125 714.464844 592.265625 715.265625 C 591.46875 716.0625 590.613281 716.847656 589.726562 717.570312 C 588.84375 718.28125 587.929688 718.964844 586.972656 719.589844 C 586.027344 720.226562 585.042969 720.804688 584.039062 721.34375 C 583.054688 721.867188 582.007812 722.359375 580.964844 722.792969 C 579.917969 723.230469 578.832031 723.621094 577.757812 723.941406 C 576.671875 724.273438 575.554688 724.566406 574.453125 724.78125 C 573.335938 725 572.203125 725.171875 571.070312 725.289062 C 569.941406 725.40625 568.777344 725.464844 567.648438 725.464844 Z M 567.648438 725.464844 " fill-opacity="1" fill-rule="evenodd"/><path fill="#1e1e63" d="M 706.902344 725.464844 C 705.769531 725.464844 704.609375 725.40625 703.480469 725.289062 C 702.347656 725.171875 701.214844 725 700.097656 724.78125 C 698.996094 724.5625 697.878906 724.273438 696.792969 723.941406 C 695.71875 723.621094 694.632812 723.230469 693.585938 722.792969 C 692.542969 722.359375 691.511719 721.867188 690.511719 721.34375 C 689.507812 720.804688 688.523438 720.226562 687.578125 719.589844 C 686.621094 718.964844 685.707031 718.285156 684.824219 717.570312 C 683.9375 716.847656 683.082031 716.0625 682.285156 715.265625 C 681.488281 714.46875 680.703125 713.609375 679.976562 712.726562 C 679.269531 711.84375 678.585938 710.929688 677.960938 709.972656 C 677.324219 709.027344 676.742188 708.042969 676.207031 707.039062 C 675.671875 706.039062 675.191406 705.007812 674.757812 703.964844 C 674.320312 702.917969 673.929688 701.832031 673.609375 700.757812 C 673.277344 699.671875 672.984375 698.554688 672.769531 697.453125 C 672.535156 696.335938 672.378906 695.203125 672.261719 694.070312 C 672.144531 692.941406 672.085938 691.78125 672.085938 690.648438 C 672.085938 689.515625 672.144531 688.355469 672.261719 687.222656 C 672.378906 686.09375 672.535156 684.960938 672.769531 683.84375 C 672.988281 682.742188 673.277344 681.625 673.609375 680.539062 C 673.929688 679.464844 674.320312 678.378906 674.757812 677.332031 C 675.191406 676.289062 675.671875 675.242188 676.207031 674.257812 C 676.742188 673.253906 677.324219 672.269531 677.960938 671.324219 C 678.585938 670.367188 679.265625 669.453125 679.976562 668.570312 C 680.703125 667.683594 681.488281 666.828125 682.285156 666.03125 C 683.082031 665.230469 683.9375 664.449219 684.824219 663.726562 C 685.707031 663.015625 686.621094 662.332031 687.578125 661.707031 C 688.523438 661.070312 689.507812 660.492188 690.511719 659.953125 C 691.511719 659.417969 692.542969 658.9375 693.585938 658.503906 C 694.632812 658.066406 695.71875 657.675781 696.792969 657.355469 C 697.878906 657.023438 698.996094 656.730469 700.097656 656.515625 C 701.214844 656.28125 702.347656 656.125 703.480469 656.007812 C 705.753906 655.773438 708.046875 655.773438 710.328125 656.007812 C 711.457031 656.125 712.589844 656.28125 713.707031 656.515625 C 714.808594 656.734375 715.925781 657.023438 717.011719 657.355469 C 718.085938 657.675781 719.175781 658.066406 720.21875 658.503906 C 721.265625 658.9375 722.292969 659.417969 723.296875 659.953125 C 724.296875 660.492188 725.28125 661.070312 726.226562 661.707031 C 727.183594 662.332031 728.097656 663.011719 728.980469 663.726562 C 729.867188 664.449219 730.722656 665.234375 731.519531 666.03125 C 732.316406 666.828125 733.101562 667.683594 733.828125 668.570312 C 734.535156 669.453125 735.21875 670.367188 735.84375 671.324219 C 736.480469 672.269531 737.0625 673.253906 737.597656 674.257812 C 738.136719 675.242188 738.613281 676.289062 739.046875 677.332031 C 739.484375 678.378906 739.875 679.464844 740.195312 680.539062 C 740.527344 681.625 740.820312 682.742188 741.035156 683.84375 C 741.253906 684.960938 741.425781 686.09375 741.542969 687.222656 C 741.660156 688.355469 741.71875 689.515625 741.71875 690.648438 C 741.71875 691.78125 741.660156 692.941406 741.542969 694.070312 C 741.425781 695.203125 741.253906 696.335938 741.035156 697.453125 C 740.816406 698.554688 740.527344 699.671875 740.195312 700.757812 C 739.878906 701.832031 739.484375 702.917969 739.046875 703.964844 C 738.613281 705.007812 738.136719 706.039062 737.597656 707.039062 C 737.0625 708.042969 736.480469 709.027344 735.84375 709.972656 C 735.21875 710.929688 734.539062 711.84375 733.828125 712.726562 C 733.101562 713.609375 732.316406 714.464844 731.519531 715.265625 C 730.722656 716.0625 729.867188 716.847656 728.980469 717.570312 C 728.097656 718.28125 727.183594 718.964844 726.226562 719.589844 C 725.28125 720.226562 724.296875 720.804688 723.296875 721.34375 C 722.292969 721.867188 721.261719 722.359375 720.21875 722.792969 C 719.175781 723.230469 718.085938 723.621094 717.011719 723.941406 C 715.925781 724.273438 714.808594 724.566406 713.707031 724.78125 C 712.589844 725 711.457031 725.171875 710.328125 725.289062 C 709.195312 725.40625 708.035156 725.464844 706.902344 725.464844 Z M 706.902344 725.464844 " fill-opacity="1" fill-rule="evenodd"/><path fill="#1e1e63" d="M 846.15625 725.464844 C 845.023438 725.464844 843.867188 725.40625 842.734375 725.289062 C 841.601562 725.171875 840.46875 725.015625 839.351562 724.78125 C 838.25 724.5625 837.132812 724.273438 836.046875 723.941406 C 834.972656 723.621094 833.886719 723.230469 832.839844 722.792969 C 831.796875 722.359375 830.75 721.878906 829.765625 721.34375 C 828.761719 720.804688 827.777344 720.226562 826.832031 719.589844 C 825.875 718.964844 824.960938 718.285156 824.078125 717.570312 C 823.195312 716.847656 822.339844 716.0625 821.539062 715.265625 C 820.742188 714.46875 819.957031 713.609375 819.234375 712.726562 C 818.523438 711.84375 817.839844 710.929688 817.214844 709.972656 C 816.578125 709.027344 816 708.042969 815.460938 707.039062 C 814.925781 706.039062 814.445312 705.007812 814.011719 703.964844 C 813.574219 702.917969 813.183594 701.832031 812.863281 700.757812 C 812.53125 699.671875 812.238281 698.554688 812.023438 697.453125 C 811.789062 696.335938 811.632812 695.203125 811.515625 694.070312 C 811.398438 692.941406 811.339844 691.78125 811.339844 690.648438 C 811.339844 689.515625 811.398438 688.355469 811.515625 687.222656 C 811.632812 686.09375 811.789062 684.960938 812.023438 683.84375 C 812.242188 682.742188 812.53125 681.625 812.863281 680.539062 C 813.183594 679.464844 813.574219 678.378906 814.011719 677.332031 C 814.449219 676.289062 814.925781 675.242188 815.460938 674.257812 C 816 673.253906 816.578125 672.269531 817.214844 671.324219 C 817.839844 670.367188 818.519531 669.453125 819.234375 668.570312 C 819.957031 667.683594 820.742188 666.828125 821.539062 666.03125 C 822.335938 665.230469 823.195312 664.449219 824.078125 663.726562 C 824.960938 663.015625 825.875 662.332031 826.832031 661.707031 C 827.777344 661.070312 828.761719 660.492188 829.765625 659.953125 C 830.75 659.429688 831.796875 658.9375 832.839844 658.503906 C 833.886719 658.066406 834.972656 657.675781 836.046875 657.355469 C 837.132812 657.023438 838.25 656.730469 839.351562 656.515625 C 840.46875 656.296875 841.601562 656.125 842.734375 656.007812 C 845.011719 655.773438 847.300781 655.773438 849.582031 656.007812 C 850.710938 656.125 851.84375 656.296875 852.960938 656.515625 C 854.0625 656.734375 855.179688 657.023438 856.269531 657.355469 C 857.34375 657.675781 858.429688 658.066406 859.472656 658.503906 C 860.519531 658.9375 861.5625 659.429688 862.550781 659.953125 C 863.550781 660.492188 864.535156 661.070312 865.480469 661.707031 C 866.4375 662.332031 867.351562 663.011719 868.234375 663.726562 C 869.121094 664.449219 869.976562 665.234375 870.773438 666.03125 C 871.585938 666.828125 872.355469 667.683594 873.082031 668.570312 C 873.789062 669.453125 874.472656 670.367188 875.097656 671.324219 C 875.738281 672.269531 876.316406 673.253906 876.851562 674.257812 C 877.390625 675.242188 877.867188 676.289062 878.304688 677.332031 C 878.738281 678.378906 879.128906 679.464844 879.464844 680.539062 C 879.78125 681.625 880.074219 682.742188 880.289062 683.84375 C 880.523438 684.960938 880.683594 686.09375 880.796875 687.222656 C 880.914062 688.355469 880.972656 689.515625 880.972656 690.648438 C 880.972656 691.78125 880.914062 692.941406 880.796875 694.070312 C 880.683594 695.203125 880.523438 696.335938 880.289062 697.453125 C 880.070312 698.554688 879.78125 699.671875 879.464844 700.757812 C 879.132812 701.832031 878.738281 702.917969 878.304688 703.964844 C 877.867188 705.007812 877.390625 706.039062 876.851562 707.039062 C 876.316406 708.042969 875.734375 709.027344 875.097656 709.972656 C 874.472656 710.929688 873.792969 711.84375 873.082031 712.726562 C 872.355469 713.609375 871.585938 714.464844 870.773438 715.265625 C 869.976562 716.0625 869.121094 716.847656 868.234375 717.570312 C 867.351562 718.28125 866.4375 718.964844 865.480469 719.589844 C 864.535156 720.226562 863.550781 720.804688 862.550781 721.34375 C 861.5625 721.878906 860.519531 722.359375 859.472656 722.792969 C 858.429688 723.230469 857.34375 723.621094 856.269531 723.941406 C 855.179688 724.273438 854.0625 724.566406 852.960938 724.78125 C 851.84375 725.015625 850.710938 725.171875 849.582031 725.289062 C 848.449219 725.40625 847.285156 725.464844 846.15625 725.464844 Z M 846.15625 725.464844 " fill-opacity="1" fill-rule="evenodd"/><path fill="#1e1e63" d="M 985.410156 725.464844 C 984.277344 725.464844 983.121094 725.40625 981.988281 725.289062 C 980.855469 725.171875 979.726562 725 978.605469 724.78125 C 977.503906 724.5625 976.386719 724.273438 975.300781 723.941406 C 974.226562 723.621094 973.140625 723.230469 972.09375 722.792969 C 971.050781 722.359375 970.019531 721.867188 969.019531 721.34375 C 968.015625 720.804688 967.03125 720.226562 966.089844 719.589844 C 965.128906 718.964844 964.21875 718.285156 963.332031 717.570312 C 962.449219 716.847656 961.59375 716.0625 960.792969 715.265625 C 959.996094 714.46875 959.210938 713.609375 958.488281 712.726562 C 957.777344 711.84375 957.09375 710.929688 956.46875 709.972656 C 955.832031 709.027344 955.253906 708.042969 954.714844 707.039062 C 954.179688 706.039062 953.699219 705.007812 953.265625 703.964844 C 952.832031 702.917969 952.4375 701.832031 952.117188 700.757812 C 951.785156 699.671875 951.492188 698.554688 951.277344 697.453125 C 951.042969 696.335938 950.886719 695.203125 950.769531 694.070312 C 950.652344 692.941406 950.59375 691.78125 950.59375 690.648438 C 950.59375 689.515625 950.652344 688.355469 950.769531 687.222656 C 950.886719 686.09375 951.042969 684.960938 951.277344 683.84375 C 951.496094 682.742188 951.785156 681.625 952.117188 680.539062 C 952.4375 679.464844 952.828125 678.378906 953.265625 677.332031 C 953.703125 676.289062 954.179688 675.257812 954.714844 674.257812 C 955.253906 673.253906 955.832031 672.269531 956.46875 671.324219 C 957.09375 670.367188 957.777344 669.453125 958.488281 668.570312 C 959.210938 667.683594 959.996094 666.828125 960.792969 666.03125 C 961.589844 665.230469 962.449219 664.449219 963.332031 663.726562 C 964.21875 663.015625 965.128906 662.332031 966.089844 661.707031 C 967.03125 661.070312 968.019531 660.492188 969.019531 659.953125 C 970.019531 659.429688 971.050781 658.9375 972.09375 658.503906 C 973.140625 658.066406 974.226562 657.675781 975.300781 657.355469 C 976.386719 657.023438 977.503906 656.730469 978.605469 656.515625 C 979.726562 656.296875 980.855469 656.125 981.988281 656.007812 C 984.265625 655.773438 986.554688 655.773438 988.835938 656.007812 C 989.96875 656.125 991.097656 656.296875 992.214844 656.515625 C 993.316406 656.734375 994.433594 657.023438 995.523438 657.355469 C 996.597656 657.675781 997.683594 658.066406 998.726562 658.503906 C 999.773438 658.9375 1000.816406 659.429688 1001.804688 659.953125 C 1002.804688 660.492188 1003.792969 661.070312 1004.734375 661.707031 C 1005.675781 662.332031 1006.605469 663.011719 1007.488281 663.726562 C 1008.375 664.449219 1009.230469 665.234375 1010.027344 666.03125 C 1010.828125 666.828125 1011.609375 667.683594 1012.335938 668.570312 C 1013.046875 669.453125 1013.726562 670.367188 1014.351562 671.324219 C 1014.992188 672.269531 1015.570312 673.253906 1016.105469 674.257812 C 1016.644531 675.257812 1017.121094 676.289062 1017.558594 677.332031 C 1017.992188 678.378906 1018.382812 679.464844 1018.71875 680.539062 C 1019.035156 681.625 1019.328125 682.742188 1019.546875 683.84375 C 1019.777344 684.960938 1019.9375 686.09375 1020.054688 687.222656 C 1020.167969 688.355469 1020.226562 689.515625 1020.226562 690.648438 C 1020.226562 691.78125 1020.167969 692.941406 1020.054688 694.070312 C 1019.9375 695.203125 1019.777344 696.335938 1019.546875 697.453125 C 1019.328125 698.554688 1019.039062 699.671875 1018.71875 700.757812 C 1018.386719 701.832031 1017.996094 702.917969 1017.558594 703.964844 C 1017.121094 705.007812 1016.644531 706.039062 1016.105469 707.039062 C 1015.570312 708.042969 1014.988281 709.027344 1014.351562 709.972656 C 1013.726562 710.929688 1013.046875 711.84375 1012.335938 712.726562 C 1011.609375 713.609375 1010.828125 714.464844 1010.027344 715.265625 C 1009.230469 716.0625 1008.375 716.847656 1007.488281 717.570312 C 1006.605469 718.28125 1005.675781 718.964844 1004.734375 719.589844 C 1003.792969 720.226562 1002.804688 720.804688 1001.804688 721.34375 C 1000.816406 721.867188 999.773438 722.359375 998.726562 722.792969 C 997.683594 723.230469 996.597656 723.621094 995.523438 723.941406 C 994.433594 724.273438 993.316406 724.566406 992.214844 724.78125 C 991.097656 725 989.96875 725.171875 988.835938 725.289062 C 987.703125 725.40625 986.542969 725.464844 985.410156 725.464844 Z M 985.410156 725.464844 " fill-opacity="1" fill-rule="evenodd"/></svg>