<svg xmlns="http://www.w3.org/2000/svg" xmlns:xlink="http://www.w3.org/1999/xlink" width="4000" zoomAndPan="magnify" viewBox="0 0 3000 2999.999989" height="4000" preserveAspectRatio="xMidYMid meet" version="1.0"><defs><clipPath id="e374b9ef6a"><path d="M 1500 0 C 671.574219 0 0 671.574219 0 1500 C 0 2328.425781 671.574219 3000 1500 3000 C 2328.425781 3000 3000 2328.425781 3000 1500 C 3000 671.574219 2328.425781 0 1500 0 Z M 1500 0 " clip-rule="nonzero"/></clipPath><clipPath id="38bd3d9ca2"><path d="M 0 0 L 3000 0 L 3000 3000 L 0 3000 Z M 0 0 " clip-rule="nonzero"/></clipPath><clipPath id="00c9b3084d"><path d="M 1500 0 C 671.574219 0 0 671.574219 0 1500 C 0 2328.425781 671.574219 3000 1500 3000 C 2328.425781 3000 3000 2328.425781 3000 1500 C 3000 671.574219 2328.425781 0 1500 0 Z M 1500 0 " clip-rule="nonzero"/></clipPath><clipPath id="e2b4c1928e"><rect x="0" width="3000" y="0" height="3000"/></clipPath><clipPath id="e6b5c21a8c"><path d="M 639 255.511719 L 2432.980469 255.511719 L 2432.980469 2699.761719 L 639 2699.761719 Z M 639 255.511719 " clip-rule="nonzero"/></clipPath></defs><g clip-path="url(#e374b9ef6a)"><g transform="matrix(1, 0, 0, 1, 0, 0.000000000000341558)"><g clip-path="url(#e2b4c1928e)"><g clip-path="url(#38bd3d9ca2)"><g clip-path="url(#00c9b3084d)"><rect x="-660" width="4320" fill="#737373" height="4319.999984" y="-659.999998" fill-opacity="1"/></g></g></g></g></g><path fill="#c8ccd5" d="M 2391.722656 713.492188 L 2391.722656 2577.550781 C 2391.722656 2622.425781 2354.953125 2659.023438 2310.222656 2659.023438 L 761.738281 2659.023438 C 716.847656 2659.023438 680.238281 2622.425781 680.238281 2577.550781 L 680.238281 377.726562 C 680.238281 332.851562 716.847656 296.25 761.738281 296.25 L 1974.359375 296.25 C 2006.671875 296.25 2037.871094 309.140625 2060.792969 332.054688 L 2355.90625 627.082031 C 2378.828125 649.996094 2391.722656 681.027344 2391.722656 713.492188 " fill-opacity="1" fill-rule="nonzero"/><path fill="#828c99" d="M 2380.738281 662.886719 L 2106.476562 662.886719 C 2061.746094 662.886719 2024.976562 626.285156 2024.976562 581.414062 L 2024.976562 307.707031 C 2038.027344 313.277344 2050.285156 321.550781 2060.792969 332.054688 L 2355.90625 627.082031 C 2366.414062 637.585938 2374.691406 649.839844 2380.738281 662.886719 " fill-opacity="1" fill-rule="nonzero"/><path fill="#49c096" d="M 1984.226562 2414.597656 L 680.238281 2414.597656 L 680.238281 1762.800781 L 1984.226562 1762.800781 C 2029.273438 1762.800781 2065.726562 1799.242188 2065.726562 1844.273438 L 2065.726562 2333.125 C 2065.726562 2378.160156 2029.273438 2414.597656 1984.226562 2414.597656 " fill-opacity="1" fill-rule="nonzero"/><g clip-path="url(#e6b5c21a8c)"><path fill="#2b2c2d" d="M 1984.226562 1803.535156 C 2006.671875 1803.535156 2024.976562 1821.835938 2024.976562 1844.273438 L 2024.976562 2333.125 C 2024.976562 2355.5625 2006.671875 2373.863281 1984.226562 2373.863281 L 720.988281 2373.863281 L 720.988281 1803.535156 Z M 2065.726562 581.414062 L 2065.726562 394.59375 L 2293.351562 622.148438 L 2106.476562 622.148438 C 2084.03125 622.148438 2065.726562 603.847656 2065.726562 581.414062 Z M 761.738281 2699.761719 L 2310.222656 2699.761719 C 2377.714844 2699.761719 2432.472656 2645.019531 2432.472656 2577.550781 L 2432.472656 713.492188 C 2432.472656 690.574219 2427.539062 668.457031 2418.464844 648.089844 C 2417.988281 646.816406 2417.191406 645.699219 2416.554688 644.585938 C 2408.753906 627.71875 2398.25 611.804688 2384.71875 598.28125 L 2089.601562 303.25 C 2075.753906 289.40625 2059.199219 278.585938 2041.53125 270.628906 C 2041.210938 270.46875 2040.894531 270.152344 2040.574219 269.992188 C 2019.722656 260.761719 1997.277344 255.511719 1974.359375 255.511719 L 761.738281 255.511719 C 694.246094 255.511719 639.488281 310.253906 639.488281 377.726562 L 639.488281 581.414062 C 639.488281 603.847656 657.792969 622.148438 680.238281 622.148438 C 702.683594 622.148438 720.988281 603.847656 720.988281 581.414062 L 720.988281 377.726562 C 720.988281 355.289062 739.292969 336.988281 761.738281 336.988281 L 1974.359375 336.988281 C 1977.699219 336.988281 1980.882812 337.625 1984.226562 337.941406 L 1984.226562 581.414062 C 1984.226562 648.882812 2038.984375 703.625 2106.476562 703.625 L 2350.019531 703.625 C 2350.335938 706.964844 2350.972656 710.148438 2350.972656 713.492188 L 2350.972656 2577.550781 C 2350.972656 2599.988281 2332.667969 2618.285156 2310.222656 2618.285156 L 761.738281 2618.285156 C 739.292969 2618.285156 720.988281 2599.988281 720.988281 2577.550781 L 720.988281 2455.335938 L 1984.226562 2455.335938 C 2051.71875 2455.335938 2106.476562 2400.597656 2106.476562 2333.125 L 2106.476562 1844.273438 C 2106.476562 1776.804688 2051.71875 1722.0625 1984.226562 1722.0625 L 720.988281 1722.0625 L 720.988281 825.835938 C 720.988281 803.398438 702.683594 785.097656 680.238281 785.097656 C 657.792969 785.097656 639.488281 803.398438 639.488281 825.835938 L 639.488281 2577.550781 C 639.488281 2645.019531 694.246094 2699.761719 761.738281 2699.761719 " fill-opacity="1" fill-rule="nonzero"/></g><path fill="#2b2c2d" d="M 1658.230469 1966.488281 L 1739.730469 1966.488281 L 1739.730469 2251.648438 C 1739.730469 2274.085938 1758.035156 2292.386719 1780.476562 2292.386719 C 1802.921875 2292.386719 1821.226562 2274.085938 1821.226562 2251.648438 L 1821.226562 1966.488281 L 1902.726562 1966.488281 C 1925.171875 1966.488281 1943.476562 1948.1875 1943.476562 1925.75 C 1943.476562 1903.3125 1925.171875 1885.011719 1902.726562 1885.011719 L 1658.230469 1885.011719 C 1635.785156 1885.011719 1617.480469 1903.3125 1617.480469 1925.75 C 1617.480469 1948.1875 1635.785156 1966.488281 1658.230469 1966.488281 " fill-opacity="1" fill-rule="nonzero"/><path fill="#2b2c2d" d="M 883.984375 907.3125 L 2187.976562 907.3125 C 2210.417969 907.3125 2228.722656 889.011719 2228.722656 866.574219 C 2228.722656 844.136719 2210.417969 825.835938 2187.976562 825.835938 L 883.984375 825.835938 C 861.542969 825.835938 843.234375 844.136719 843.234375 866.574219 C 843.234375 889.011719 861.542969 907.3125 883.984375 907.3125 " fill-opacity="1" fill-rule="nonzero"/><path fill="#2b2c2d" d="M 883.984375 1111 L 2187.976562 1111 C 2210.417969 1111 2228.722656 1092.699219 2228.722656 1070.261719 C 2228.722656 1047.824219 2210.417969 1029.523438 2187.976562 1029.523438 L 883.984375 1029.523438 C 861.542969 1029.523438 843.234375 1047.824219 843.234375 1070.261719 C 843.234375 1092.699219 861.542969 1111 883.984375 1111 " fill-opacity="1" fill-rule="nonzero"/><path fill="#2b2c2d" d="M 883.984375 1314.6875 L 2187.976562 1314.6875 C 2210.417969 1314.6875 2228.722656 1296.386719 2228.722656 1273.949219 C 2228.722656 1251.511719 2210.417969 1233.210938 2187.976562 1233.210938 L 883.984375 1233.210938 C 861.542969 1233.210938 843.234375 1251.511719 843.234375 1273.949219 C 843.234375 1296.386719 861.542969 1314.6875 883.984375 1314.6875 " fill-opacity="1" fill-rule="nonzero"/><path fill="#2b2c2d" d="M 883.984375 1518.375 L 1495.230469 1518.375 C 1517.675781 1518.375 1535.980469 1500.074219 1535.980469 1477.636719 C 1535.980469 1455.199219 1517.675781 1436.898438 1495.230469 1436.898438 L 883.984375 1436.898438 C 861.542969 1436.898438 843.234375 1455.199219 843.234375 1477.636719 C 843.234375 1500.074219 861.542969 1518.375 883.984375 1518.375 " fill-opacity="1" fill-rule="nonzero"/><path fill="#2b2c2d" d="M 843.234375 1966.488281 L 924.734375 1966.488281 L 924.734375 2251.648438 C 924.734375 2274.085938 943.042969 2292.386719 965.484375 2292.386719 C 987.929688 2292.386719 1006.234375 2274.085938 1006.234375 2251.648438 L 1006.234375 1966.488281 L 1087.734375 1966.488281 C 1110.179688 1966.488281 1128.484375 1948.1875 1128.484375 1925.75 C 1128.484375 1903.3125 1110.179688 1885.011719 1087.734375 1885.011719 L 843.234375 1885.011719 C 820.792969 1885.011719 802.488281 1903.3125 802.488281 1925.75 C 802.488281 1948.1875 820.792969 1966.488281 843.234375 1966.488281 " fill-opacity="1" fill-rule="nonzero"/><path fill="#2b2c2d" d="M 1226.378906 2284.269531 C 1233.699219 2289.683594 1242.136719 2292.386719 1250.734375 2292.386719 C 1263.148438 2292.386719 1275.246094 2286.816406 1283.363281 2275.996094 L 1372.980469 2156.488281 L 1462.597656 2275.996094 C 1470.71875 2286.816406 1482.816406 2292.386719 1495.230469 2292.386719 C 1503.828125 2292.386719 1512.261719 2289.683594 1519.585938 2284.269531 C 1537.730469 2270.746094 1541.390625 2245.285156 1527.863281 2227.300781 L 1423.917969 2088.699219 L 1527.863281 1950.097656 C 1541.390625 1932.113281 1537.730469 1906.652344 1519.585938 1893.128906 C 1501.597656 1879.761719 1476.128906 1883.261719 1462.597656 1901.402344 L 1372.980469 2020.910156 L 1283.363281 1901.402344 C 1269.835938 1883.261719 1244.367188 1879.601562 1226.378906 1893.128906 C 1208.230469 1906.652344 1204.570312 1932.113281 1218.101562 1950.097656 L 1322.042969 2088.699219 L 1218.101562 2227.300781 C 1204.570312 2245.285156 1208.230469 2270.746094 1226.378906 2284.269531 " fill-opacity="1" fill-rule="nonzero"/></svg>