<svg xmlns="http://www.w3.org/2000/svg" xmlns:xlink="http://www.w3.org/1999/xlink" width="4000" zoomAndPan="magnify" viewBox="0 0 3000 2999.999989" height="4000" preserveAspectRatio="xMidYMid meet" version="1.0"><defs><g/><clipPath id="589aba9e6e"><path d="M 1500 0 C 671.574219 0 0 671.574219 0 1500 C 0 2328.425781 671.574219 3000 1500 3000 C 2328.425781 3000 3000 2328.425781 3000 1500 C 3000 671.574219 2328.425781 0 1500 0 Z M 1500 0 " clip-rule="nonzero"/></clipPath><clipPath id="133f4e7bdc"><path d="M 0 0 L 3000 0 L 3000 3000 L 0 3000 Z M 0 0 " clip-rule="nonzero"/></clipPath><clipPath id="de118a0de1"><path d="M 1500 0 C 671.574219 0 0 671.574219 0 1500 C 0 2328.425781 671.574219 3000 1500 3000 C 2328.425781 3000 3000 2328.425781 3000 1500 C 3000 671.574219 2328.425781 0 1500 0 Z M 1500 0 " clip-rule="nonzero"/></clipPath><clipPath id="d7f2b8571c"><rect x="0" width="3000" y="0" height="3000"/></clipPath><clipPath id="9629788777"><path d="M 460.210938 507.558594 L 2539.960938 507.558594 L 2539.960938 2774.058594 L 460.210938 2774.058594 Z M 460.210938 507.558594 " clip-rule="nonzero"/></clipPath></defs><g clip-path="url(#589aba9e6e)"><g transform="matrix(1, 0, 0, 1, 0, 0.000000000000341558)"><g clip-path="url(#d7f2b8571c)"><g clip-path="url(#133f4e7bdc)"><g clip-path="url(#de118a0de1)"><rect x="-660" width="4320" fill="#bae1ff" height="4319.999984" y="-659.999998" fill-opacity="1"/></g></g></g></g></g><g fill="#ffffff" fill-opacity="1"><g transform="translate(1494.726538, 1500.750032)"><g><path d="M 0.125 0.34375 L 0.125 0.125 L 0.25 0.125 C 0.34375 0.125 0.410156 0.101562 0.453125 0.0625 C 0.492188 0.0195312 0.515625 -0.0390625 0.515625 -0.125 L 0.515625 -0.6875 C 0.515625 -0.800781 0.535156 -0.890625 0.578125 -0.953125 C 0.628906 -1.015625 0.695312 -1.0625 0.78125 -1.09375 L 0.78125 -1.125 C 0.695312 -1.15625 0.628906 -1.203125 0.578125 -1.265625 C 0.535156 -1.328125 0.515625 -1.414062 0.515625 -1.53125 L 0.515625 -2.09375 C 0.515625 -2.1875 0.492188 -2.253906 0.453125 -2.296875 C 0.410156 -2.335938 0.34375 -2.359375 0.25 -2.359375 L 0.125 -2.359375 L 0.125 -2.578125 L 0.296875 -2.578125 C 0.453125 -2.578125 0.570312 -2.535156 0.65625 -2.453125 C 0.738281 -2.367188 0.78125 -2.25 0.78125 -2.09375 L 0.78125 -1.515625 C 0.78125 -1.410156 0.800781 -1.335938 0.84375 -1.296875 C 0.882812 -1.253906 0.957031 -1.234375 1.0625 -1.234375 L 1.1875 -1.234375 L 1.1875 -1 L 1.0625 -1 C 0.957031 -1 0.882812 -0.976562 0.84375 -0.9375 C 0.800781 -0.894531 0.78125 -0.820312 0.78125 -0.71875 L 0.78125 -0.125 C 0.78125 0.03125 0.738281 0.144531 0.65625 0.21875 C 0.570312 0.300781 0.453125 0.34375 0.296875 0.34375 Z M 0.125 0.34375 "/></g></g></g><g fill="#ffffff" fill-opacity="1"><g transform="translate(1496.044096, 1500.750032)"><g><path d="M 1.03125 0.34375 C 0.875 0.34375 0.753906 0.300781 0.671875 0.21875 C 0.585938 0.144531 0.546875 0.03125 0.546875 -0.125 L 0.546875 -0.71875 C 0.546875 -0.820312 0.523438 -0.894531 0.484375 -0.9375 C 0.441406 -0.976562 0.367188 -1 0.265625 -1 L 0.125 -1 L 0.125 -1.234375 L 0.265625 -1.234375 C 0.367188 -1.234375 0.441406 -1.253906 0.484375 -1.296875 C 0.523438 -1.335938 0.546875 -1.410156 0.546875 -1.515625 L 0.546875 -2.09375 C 0.546875 -2.25 0.585938 -2.367188 0.671875 -2.453125 C 0.753906 -2.535156 0.875 -2.578125 1.03125 -2.578125 L 1.203125 -2.578125 L 1.203125 -2.359375 L 1.0625 -2.359375 C 0.976562 -2.359375 0.910156 -2.335938 0.859375 -2.296875 C 0.816406 -2.253906 0.796875 -2.1875 0.796875 -2.09375 L 0.796875 -1.53125 C 0.796875 -1.414062 0.773438 -1.328125 0.734375 -1.265625 C 0.691406 -1.203125 0.628906 -1.15625 0.546875 -1.125 L 0.546875 -1.09375 C 0.628906 -1.0625 0.691406 -1.015625 0.734375 -0.953125 C 0.773438 -0.890625 0.796875 -0.800781 0.796875 -0.6875 L 0.796875 -0.125 C 0.796875 -0.0390625 0.816406 0.0195312 0.859375 0.0625 C 0.910156 0.101562 0.976562 0.125 1.0625 0.125 L 1.203125 0.125 L 1.203125 0.34375 Z M 1.03125 0.34375 "/></g></g></g><g fill="#ffffff" fill-opacity="1"><g transform="translate(1497.363314, 1500.750032)"><g><path d="M 1.03125 0.34375 C 0.875 0.34375 0.753906 0.300781 0.671875 0.21875 C 0.585938 0.144531 0.546875 0.03125 0.546875 -0.125 L 0.546875 -0.71875 C 0.546875 -0.820312 0.523438 -0.894531 0.484375 -0.9375 C 0.441406 -0.976562 0.367188 -1 0.265625 -1 L 0.125 -1 L 0.125 -1.234375 L 0.265625 -1.234375 C 0.367188 -1.234375 0.441406 -1.253906 0.484375 -1.296875 C 0.523438 -1.335938 0.546875 -1.410156 0.546875 -1.515625 L 0.546875 -2.09375 C 0.546875 -2.25 0.585938 -2.367188 0.671875 -2.453125 C 0.753906 -2.535156 0.875 -2.578125 1.03125 -2.578125 L 1.203125 -2.578125 L 1.203125 -2.359375 L 1.0625 -2.359375 C 0.976562 -2.359375 0.910156 -2.335938 0.859375 -2.296875 C 0.816406 -2.253906 0.796875 -2.1875 0.796875 -2.09375 L 0.796875 -1.53125 C 0.796875 -1.414062 0.773438 -1.328125 0.734375 -1.265625 C 0.691406 -1.203125 0.628906 -1.15625 0.546875 -1.125 L 0.546875 -1.09375 C 0.628906 -1.0625 0.691406 -1.015625 0.734375 -0.953125 C 0.773438 -0.890625 0.796875 -0.800781 0.796875 -0.6875 L 0.796875 -0.125 C 0.796875 -0.0390625 0.816406 0.0195312 0.859375 0.0625 C 0.910156 0.101562 0.976562 0.125 1.0625 0.125 L 1.203125 0.125 L 1.203125 0.34375 Z M 1.03125 0.34375 "/></g></g></g><g fill="#ffffff" fill-opacity="1"><g transform="translate(1498.682531, 1500.750032)"><g><path d="M 1.03125 0.34375 C 0.875 0.34375 0.753906 0.300781 0.671875 0.21875 C 0.585938 0.144531 0.546875 0.03125 0.546875 -0.125 L 0.546875 -0.71875 C 0.546875 -0.820312 0.523438 -0.894531 0.484375 -0.9375 C 0.441406 -0.976562 0.367188 -1 0.265625 -1 L 0.125 -1 L 0.125 -1.234375 L 0.265625 -1.234375 C 0.367188 -1.234375 0.441406 -1.253906 0.484375 -1.296875 C 0.523438 -1.335938 0.546875 -1.410156 0.546875 -1.515625 L 0.546875 -2.09375 C 0.546875 -2.25 0.585938 -2.367188 0.671875 -2.453125 C 0.753906 -2.535156 0.875 -2.578125 1.03125 -2.578125 L 1.203125 -2.578125 L 1.203125 -2.359375 L 1.0625 -2.359375 C 0.976562 -2.359375 0.910156 -2.335938 0.859375 -2.296875 C 0.816406 -2.253906 0.796875 -2.1875 0.796875 -2.09375 L 0.796875 -1.53125 C 0.796875 -1.414062 0.773438 -1.328125 0.734375 -1.265625 C 0.691406 -1.203125 0.628906 -1.15625 0.546875 -1.125 L 0.546875 -1.09375 C 0.628906 -1.0625 0.691406 -1.015625 0.734375 -0.953125 C 0.773438 -0.890625 0.796875 -0.800781 0.796875 -0.6875 L 0.796875 -0.125 C 0.796875 -0.0390625 0.816406 0.0195312 0.859375 0.0625 C 0.910156 0.101562 0.976562 0.125 1.0625 0.125 L 1.203125 0.125 L 1.203125 0.34375 Z M 1.03125 0.34375 "/></g></g></g><g fill="#ffffff" fill-opacity="1"><g transform="translate(1500.001749, 1500.750032)"><g><path d="M 0.125 0.34375 L 0.125 0.125 L 0.25 0.125 C 0.34375 0.125 0.410156 0.101562 0.453125 0.0625 C 0.492188 0.0195312 0.515625 -0.0390625 0.515625 -0.125 L 0.515625 -0.6875 C 0.515625 -0.800781 0.535156 -0.890625 0.578125 -0.953125 C 0.628906 -1.015625 0.695312 -1.0625 0.78125 -1.09375 L 0.78125 -1.125 C 0.695312 -1.15625 0.628906 -1.203125 0.578125 -1.265625 C 0.535156 -1.328125 0.515625 -1.414062 0.515625 -1.53125 L 0.515625 -2.09375 C 0.515625 -2.1875 0.492188 -2.253906 0.453125 -2.296875 C 0.410156 -2.335938 0.34375 -2.359375 0.25 -2.359375 L 0.125 -2.359375 L 0.125 -2.578125 L 0.296875 -2.578125 C 0.453125 -2.578125 0.570312 -2.535156 0.65625 -2.453125 C 0.738281 -2.367188 0.78125 -2.25 0.78125 -2.09375 L 0.78125 -1.515625 C 0.78125 -1.410156 0.800781 -1.335938 0.84375 -1.296875 C 0.882812 -1.253906 0.957031 -1.234375 1.0625 -1.234375 L 1.1875 -1.234375 L 1.1875 -1 L 1.0625 -1 C 0.957031 -1 0.882812 -0.976562 0.84375 -0.9375 C 0.800781 -0.894531 0.78125 -0.820312 0.78125 -0.71875 L 0.78125 -0.125 C 0.78125 0.03125 0.738281 0.144531 0.65625 0.21875 C 0.570312 0.300781 0.453125 0.34375 0.296875 0.34375 Z M 0.125 0.34375 "/></g></g></g><g fill="#ffffff" fill-opacity="1"><g transform="translate(1501.319307, 1500.750032)"><g><path d="M 0.125 0.34375 L 0.125 0.125 L 0.25 0.125 C 0.34375 0.125 0.410156 0.101562 0.453125 0.0625 C 0.492188 0.0195312 0.515625 -0.0390625 0.515625 -0.125 L 0.515625 -0.6875 C 0.515625 -0.800781 0.535156 -0.890625 0.578125 -0.953125 C 0.628906 -1.015625 0.695312 -1.0625 0.78125 -1.09375 L 0.78125 -1.125 C 0.695312 -1.15625 0.628906 -1.203125 0.578125 -1.265625 C 0.535156 -1.328125 0.515625 -1.414062 0.515625 -1.53125 L 0.515625 -2.09375 C 0.515625 -2.1875 0.492188 -2.253906 0.453125 -2.296875 C 0.410156 -2.335938 0.34375 -2.359375 0.25 -2.359375 L 0.125 -2.359375 L 0.125 -2.578125 L 0.296875 -2.578125 C 0.453125 -2.578125 0.570312 -2.535156 0.65625 -2.453125 C 0.738281 -2.367188 0.78125 -2.25 0.78125 -2.09375 L 0.78125 -1.515625 C 0.78125 -1.410156 0.800781 -1.335938 0.84375 -1.296875 C 0.882812 -1.253906 0.957031 -1.234375 1.0625 -1.234375 L 1.1875 -1.234375 L 1.1875 -1 L 1.0625 -1 C 0.957031 -1 0.882812 -0.976562 0.84375 -0.9375 C 0.800781 -0.894531 0.78125 -0.820312 0.78125 -0.71875 L 0.78125 -0.125 C 0.78125 0.03125 0.738281 0.144531 0.65625 0.21875 C 0.570312 0.300781 0.453125 0.34375 0.296875 0.34375 Z M 0.125 0.34375 "/></g></g></g><g fill="#ffffff" fill-opacity="1"><g transform="translate(1502.636865, 1500.750032)"><g><path d="M 0.125 0.34375 L 0.125 0.125 L 0.25 0.125 C 0.34375 0.125 0.410156 0.101562 0.453125 0.0625 C 0.492188 0.0195312 0.515625 -0.0390625 0.515625 -0.125 L 0.515625 -0.6875 C 0.515625 -0.800781 0.535156 -0.890625 0.578125 -0.953125 C 0.628906 -1.015625 0.695312 -1.0625 0.78125 -1.09375 L 0.78125 -1.125 C 0.695312 -1.15625 0.628906 -1.203125 0.578125 -1.265625 C 0.535156 -1.328125 0.515625 -1.414062 0.515625 -1.53125 L 0.515625 -2.09375 C 0.515625 -2.1875 0.492188 -2.253906 0.453125 -2.296875 C 0.410156 -2.335938 0.34375 -2.359375 0.25 -2.359375 L 0.125 -2.359375 L 0.125 -2.578125 L 0.296875 -2.578125 C 0.453125 -2.578125 0.570312 -2.535156 0.65625 -2.453125 C 0.738281 -2.367188 0.78125 -2.25 0.78125 -2.09375 L 0.78125 -1.515625 C 0.78125 -1.410156 0.800781 -1.335938 0.84375 -1.296875 C 0.882812 -1.253906 0.957031 -1.234375 1.0625 -1.234375 L 1.1875 -1.234375 L 1.1875 -1 L 1.0625 -1 C 0.957031 -1 0.882812 -0.976562 0.84375 -0.9375 C 0.800781 -0.894531 0.78125 -0.820312 0.78125 -0.71875 L 0.78125 -0.125 C 0.78125 0.03125 0.738281 0.144531 0.65625 0.21875 C 0.570312 0.300781 0.453125 0.34375 0.296875 0.34375 Z M 0.125 0.34375 "/></g></g></g><g fill="#ffffff" fill-opacity="1"><g transform="translate(1503.954424, 1500.750032)"><g><path d="M 0.125 0.34375 L 0.125 0.125 L 0.25 0.125 C 0.34375 0.125 0.410156 0.101562 0.453125 0.0625 C 0.492188 0.0195312 0.515625 -0.0390625 0.515625 -0.125 L 0.515625 -0.6875 C 0.515625 -0.800781 0.535156 -0.890625 0.578125 -0.953125 C 0.628906 -1.015625 0.695312 -1.0625 0.78125 -1.09375 L 0.78125 -1.125 C 0.695312 -1.15625 0.628906 -1.203125 0.578125 -1.265625 C 0.535156 -1.328125 0.515625 -1.414062 0.515625 -1.53125 L 0.515625 -2.09375 C 0.515625 -2.1875 0.492188 -2.253906 0.453125 -2.296875 C 0.410156 -2.335938 0.34375 -2.359375 0.25 -2.359375 L 0.125 -2.359375 L 0.125 -2.578125 L 0.296875 -2.578125 C 0.453125 -2.578125 0.570312 -2.535156 0.65625 -2.453125 C 0.738281 -2.367188 0.78125 -2.25 0.78125 -2.09375 L 0.78125 -1.515625 C 0.78125 -1.410156 0.800781 -1.335938 0.84375 -1.296875 C 0.882812 -1.253906 0.957031 -1.234375 1.0625 -1.234375 L 1.1875 -1.234375 L 1.1875 -1 L 1.0625 -1 C 0.957031 -1 0.882812 -0.976562 0.84375 -0.9375 C 0.800781 -0.894531 0.78125 -0.820312 0.78125 -0.71875 L 0.78125 -0.125 C 0.78125 0.03125 0.738281 0.144531 0.65625 0.21875 C 0.570312 0.300781 0.453125 0.34375 0.296875 0.34375 Z M 0.125 0.34375 "/></g></g></g><g clip-path="url(#9629788777)"><path fill="#2196f3" d="M 2526.828125 523.046875 C 2524.613281 520.601562 2522.164062 518.417969 2519.492188 516.484375 C 2516.816406 514.554688 2513.96875 512.921875 2510.949219 511.589844 C 2507.933594 510.257812 2504.808594 509.25 2501.582031 508.570312 C 2498.351562 507.890625 2495.089844 507.554688 2491.789062 507.558594 L 508.382812 507.558594 C 507.558594 507.554688 506.734375 507.570312 505.910156 507.609375 C 505.085938 507.648438 504.265625 507.710938 503.445312 507.792969 C 502.625 507.875 501.804688 507.976562 500.992188 508.101562 C 500.175781 508.226562 499.363281 508.375 498.558594 508.542969 C 497.75 508.707031 496.945312 508.898438 496.148438 509.105469 C 495.351562 509.316406 494.558594 509.546875 493.773438 509.796875 C 492.988281 510.046875 492.210938 510.320312 491.4375 510.613281 C 490.667969 510.902344 489.90625 511.214844 489.148438 511.546875 C 488.394531 511.878906 487.648438 512.230469 486.914062 512.601562 C 486.175781 512.972656 485.449219 513.359375 484.734375 513.769531 C 484.015625 514.179688 483.3125 514.605469 482.617188 515.050781 C 481.925781 515.496094 481.242188 515.960938 480.574219 516.441406 C 479.902344 516.921875 479.246094 517.421875 478.605469 517.9375 C 477.960938 518.453125 477.332031 518.984375 476.714844 519.535156 C 476.101562 520.082031 475.5 520.648438 474.914062 521.226562 C 474.328125 521.808594 473.757812 522.402344 473.203125 523.015625 C 472.648438 523.625 472.109375 524.25 471.589844 524.886719 C 471.066406 525.523438 470.5625 526.175781 470.074219 526.839844 C 469.585938 527.503906 469.117188 528.183594 468.664062 528.871094 C 468.210938 529.5625 467.777344 530.261719 467.359375 530.972656 C 466.945312 531.6875 466.546875 532.410156 466.171875 533.140625 C 465.792969 533.875 465.433594 534.617188 465.09375 535.367188 C 464.757812 536.121094 464.4375 536.878906 464.136719 537.648438 C 463.839844 538.417969 463.558594 539.191406 463.300781 539.976562 C 463.042969 540.757812 462.804688 541.546875 462.589844 542.34375 C 462.371094 543.140625 462.175781 543.941406 462 544.746094 C 461.824219 545.550781 461.671875 546.359375 461.539062 547.175781 C 461.40625 547.988281 461.292969 548.804688 461.203125 549.625 C 461.113281 550.445312 461.046875 551.265625 461 552.089844 C 460.953125 552.914062 460.925781 553.734375 460.921875 554.5625 C 460.917969 555.386719 460.9375 556.210938 460.976562 557.03125 C 461.015625 557.855469 461.078125 558.679688 461.160156 559.5 L 650.054688 2448.25 C 650.277344 2450.503906 650.660156 2452.730469 651.203125 2454.929688 C 651.746094 2457.128906 652.445312 2459.277344 653.300781 2461.378906 C 654.152344 2463.476562 655.152344 2465.503906 656.296875 2467.457031 C 657.441406 2469.414062 658.71875 2471.277344 660.132812 2473.046875 C 661.542969 2474.820312 663.078125 2476.480469 664.730469 2478.03125 C 666.382812 2479.582031 668.136719 2481.003906 669.992188 2482.304688 C 671.847656 2483.601562 673.789062 2484.757812 675.8125 2485.777344 C 677.835938 2486.796875 679.921875 2487.667969 682.074219 2488.382812 L 1532.105469 2771.695312 C 1537.046875 2773.292969 1542.117188 2774.082031 1547.308594 2774.058594 C 1553.035156 2774.058594 1558.574219 2773.050781 1563.933594 2771.035156 L 2319.515625 2487.722656 C 2321.578125 2486.960938 2323.574219 2486.0625 2325.507812 2485.019531 C 2327.441406 2483.980469 2329.296875 2482.8125 2331.066406 2481.511719 C 2332.839844 2480.214844 2334.511719 2478.796875 2336.085938 2477.265625 C 2337.660156 2475.734375 2339.117188 2474.097656 2340.464844 2472.363281 C 2341.808594 2470.628906 2343.027344 2468.804688 2344.121094 2466.898438 C 2345.210938 2464.996094 2346.164062 2463.023438 2346.980469 2460.984375 C 2347.796875 2458.945312 2348.46875 2456.859375 2348.992188 2454.726562 C 2349.519531 2452.59375 2349.894531 2450.433594 2350.117188 2448.25 L 2539.011719 559.5 C 2539.332031 556.203125 2539.304688 552.910156 2538.933594 549.621094 C 2538.558594 546.332031 2537.847656 543.117188 2536.796875 539.976562 C 2535.75 536.835938 2534.382812 533.839844 2532.703125 530.988281 C 2531.023438 528.132812 2529.066406 525.488281 2526.828125 523.046875 Z M 2526.828125 523.046875 " fill-opacity="1" fill-rule="nonzero"/></g><path fill="#fafafa" d="M 1547.308594 2301.871094 C 1542.210938 2301.863281 1537.238281 2301.078125 1532.386719 2299.507812 L 1107.371094 2157.851562 C 1105.410156 2157.199219 1103.5 2156.421875 1101.640625 2155.515625 C 1099.78125 2154.613281 1097.988281 2153.589844 1096.265625 2152.453125 C 1094.539062 2151.3125 1092.898438 2150.066406 1091.335938 2148.710938 C 1089.773438 2147.355469 1088.308594 2145.902344 1086.9375 2144.355469 C 1085.570312 2142.808594 1084.304688 2141.175781 1083.148438 2139.464844 C 1081.992188 2137.75 1080.953125 2135.96875 1080.03125 2134.117188 C 1079.109375 2132.269531 1078.3125 2130.363281 1077.640625 2128.410156 C 1076.96875 2126.457031 1076.425781 2124.464844 1076.015625 2122.4375 L 1028.789062 1886.347656 C 1028.480469 1884.828125 1028.246094 1883.300781 1028.085938 1881.765625 C 1027.925781 1880.226562 1027.84375 1878.683594 1027.835938 1877.132812 C 1027.828125 1875.585938 1027.894531 1874.042969 1028.039062 1872.503906 C 1028.179688 1870.964844 1028.398438 1869.433594 1028.695312 1867.914062 C 1028.988281 1866.394531 1029.355469 1864.894531 1029.796875 1863.410156 C 1030.238281 1861.929688 1030.75 1860.472656 1031.335938 1859.039062 C 1031.921875 1857.605469 1032.574219 1856.207031 1033.296875 1854.835938 C 1034.019531 1853.46875 1034.808594 1852.140625 1035.660156 1850.847656 C 1036.511719 1849.558594 1037.425781 1848.3125 1038.402344 1847.113281 C 1039.378906 1845.910156 1040.410156 1844.761719 1041.5 1843.660156 C 1042.585938 1842.5625 1043.726562 1841.519531 1044.917969 1840.53125 C 1046.109375 1839.542969 1047.34375 1838.617188 1048.628906 1837.75 C 1049.910156 1836.882812 1051.230469 1836.082031 1052.59375 1835.347656 C 1053.953125 1834.609375 1055.347656 1833.941406 1056.773438 1833.34375 C 1058.199219 1832.746094 1059.652344 1832.21875 1061.128906 1831.761719 C 1062.609375 1831.304688 1064.105469 1830.921875 1065.621094 1830.613281 C 1067.136719 1830.300781 1068.664062 1830.066406 1070.203125 1829.910156 C 1071.742188 1829.75 1073.289062 1829.667969 1074.835938 1829.660156 C 1076.382812 1829.652344 1077.925781 1829.71875 1079.464844 1829.863281 C 1081.007812 1830.007812 1082.535156 1830.226562 1084.054688 1830.519531 C 1085.574219 1830.816406 1087.074219 1831.183594 1088.558594 1831.625 C 1090.042969 1832.066406 1091.5 1832.582031 1092.929688 1833.164062 C 1094.363281 1833.75 1095.765625 1834.40625 1097.132812 1835.128906 C 1098.5 1835.851562 1099.828125 1836.636719 1101.121094 1837.492188 C 1102.410156 1838.34375 1103.65625 1839.257812 1104.855469 1840.234375 C 1106.058594 1841.210938 1107.207031 1842.242188 1108.308594 1843.332031 C 1109.40625 1844.421875 1110.449219 1845.5625 1111.4375 1846.753906 C 1112.425781 1847.945312 1113.351562 1849.179688 1114.214844 1850.460938 C 1115.082031 1851.746094 1115.882812 1853.066406 1116.617188 1854.429688 C 1117.355469 1855.789062 1118.023438 1857.183594 1118.621094 1858.609375 C 1119.21875 1860.035156 1119.746094 1861.488281 1120.203125 1862.964844 C 1120.660156 1864.445312 1121.039062 1865.941406 1121.351562 1867.457031 L 1163.191406 2076.636719 L 1546.367188 2204.601562 L 1883.167969 2078.335938 L 2057.894531 1074.183594 L 980.621094 1074.183594 C 979.074219 1074.183594 977.53125 1074.109375 975.992188 1073.957031 C 974.453125 1073.804688 972.925781 1073.578125 971.410156 1073.277344 C 969.894531 1072.972656 968.394531 1072.597656 966.914062 1072.148438 C 965.433594 1071.699219 963.980469 1071.179688 962.550781 1070.589844 C 961.121094 1069.996094 959.726562 1069.335938 958.359375 1068.609375 C 956.996094 1067.878906 955.671875 1067.085938 954.386719 1066.226562 C 953.101562 1065.367188 951.859375 1064.445312 950.664062 1063.464844 C 949.46875 1062.484375 948.324219 1061.445312 947.230469 1060.351562 C 946.136719 1059.257812 945.097656 1058.113281 944.117188 1056.917969 C 943.136719 1055.722656 942.214844 1054.484375 941.355469 1053.199219 C 940.496094 1051.910156 939.703125 1050.585938 938.972656 1049.222656 C 938.246094 1047.859375 937.585938 1046.464844 936.992188 1045.035156 C 936.402344 1043.605469 935.878906 1042.152344 935.433594 1040.671875 C 934.984375 1039.191406 934.609375 1037.691406 934.304688 1036.175781 C 934.003906 1034.660156 933.777344 1033.132812 933.625 1031.59375 C 933.472656 1030.054688 933.398438 1028.511719 933.398438 1026.964844 C 933.398438 1025.417969 933.472656 1023.875 933.625 1022.335938 C 933.777344 1020.796875 934.003906 1019.269531 934.304688 1017.753906 C 934.609375 1016.234375 934.984375 1014.738281 935.433594 1013.257812 C 935.882812 1011.777344 936.402344 1010.324219 936.992188 1008.894531 C 937.585938 1007.464844 938.246094 1006.070312 938.972656 1004.707031 C 939.703125 1003.34375 940.496094 1002.015625 941.355469 1000.730469 C 942.214844 999.445312 943.136719 998.203125 944.117188 997.007812 C 945.097656 995.8125 946.136719 994.667969 947.230469 993.574219 C 948.324219 992.480469 949.46875 991.445312 950.664062 990.464844 C 951.859375 989.484375 953.101562 988.5625 954.386719 987.703125 C 955.671875 986.84375 956.996094 986.050781 958.359375 985.320312 C 959.726562 984.59375 961.121094 983.933594 962.550781 983.339844 C 963.980469 982.75 965.433594 982.226562 966.914062 981.777344 C 968.394531 981.332031 969.890625 980.953125 971.410156 980.652344 C 972.925781 980.351562 974.453125 980.125 975.992188 979.972656 C 977.53125 979.820312 979.074219 979.746094 980.621094 979.746094 L 2113.996094 979.746094 C 2114.855469 979.746094 2115.714844 979.769531 2116.570312 979.8125 C 2117.429688 979.859375 2118.285156 979.929688 2119.136719 980.023438 C 2119.988281 980.113281 2120.839844 980.230469 2121.6875 980.367188 C 2122.535156 980.507812 2123.378906 980.671875 2124.214844 980.855469 C 2125.054688 981.039062 2125.886719 981.246094 2126.714844 981.476562 C 2127.539062 981.707031 2128.359375 981.960938 2129.171875 982.234375 C 2129.988281 982.511719 2130.792969 982.808594 2131.589844 983.125 C 2132.386719 983.445312 2133.171875 983.785156 2133.953125 984.148438 C 2134.730469 984.511719 2135.496094 984.894531 2136.253906 985.296875 C 2137.011719 985.699219 2137.757812 986.125 2138.492188 986.570312 C 2139.226562 987.011719 2139.949219 987.476562 2140.65625 987.960938 C 2141.367188 988.445312 2142.0625 988.949219 2142.742188 989.46875 C 2143.425781 989.992188 2144.09375 990.53125 2144.746094 991.089844 C 2145.398438 991.648438 2146.035156 992.222656 2146.652344 992.816406 C 2147.273438 993.40625 2147.878906 994.015625 2148.464844 994.644531 C 2149.054688 995.269531 2149.625 995.910156 2150.175781 996.566406 C 2150.730469 997.222656 2151.265625 997.894531 2151.78125 998.582031 C 2152.296875 999.265625 2152.792969 999.964844 2153.269531 1000.679688 C 2153.75 1001.390625 2154.207031 1002.117188 2154.644531 1002.855469 C 2155.082031 1003.59375 2155.5 1004.34375 2155.898438 1005.101562 C 2156.296875 1005.863281 2156.671875 1006.636719 2157.027344 1007.417969 C 2157.382812 1008.199219 2157.714844 1008.988281 2158.027344 1009.789062 C 2158.339844 1010.585938 2158.632812 1011.394531 2158.898438 1012.210938 C 2159.167969 1013.023438 2159.414062 1013.847656 2159.636719 1014.675781 C 2159.859375 1015.503906 2160.0625 1016.339844 2160.238281 1017.179688 C 2160.417969 1018.019531 2160.570312 1018.863281 2160.703125 1019.710938 C 2160.835938 1020.558594 2160.945312 1021.410156 2161.03125 1022.261719 C 2161.113281 1023.117188 2161.175781 1023.972656 2161.214844 1024.832031 C 2161.253906 1025.6875 2161.269531 1026.546875 2161.261719 1027.402344 C 2161.253906 1028.261719 2161.222656 1029.121094 2161.167969 1029.976562 C 2161.113281 1030.832031 2161.035156 1031.6875 2160.933594 1032.539062 C 2160.832031 1033.390625 2160.707031 1034.242188 2160.558594 1035.085938 L 1971.664062 2121.117188 C 1971.3125 2123.132812 1970.828125 2125.117188 1970.21875 2127.070312 C 1969.609375 2129.027344 1968.871094 2130.929688 1968.015625 2132.789062 C 1967.15625 2134.648438 1966.179688 2136.441406 1965.085938 2138.171875 C 1963.996094 2139.902344 1962.796875 2141.558594 1961.488281 2143.132812 C 1960.179688 2144.707031 1958.777344 2146.191406 1957.277344 2147.582031 C 1955.777344 2148.976562 1954.191406 2150.265625 1952.523438 2151.453125 C 1950.855469 2152.640625 1949.117188 2153.714844 1947.3125 2154.671875 C 1945.503906 2155.632812 1943.640625 2156.472656 1941.722656 2157.191406 L 1563.933594 2298.847656 C 1558.574219 2300.863281 1553.035156 2301.871094 1547.308594 2301.871094 Z M 1547.308594 2301.871094 " fill-opacity="1" fill-rule="nonzero"/><path fill="#fafafa" d="M 2019.550781 1546.371094 L 1027.847656 1546.371094 C 1026.300781 1546.371094 1024.757812 1546.296875 1023.21875 1546.144531 C 1021.679688 1545.992188 1020.148438 1545.765625 1018.632812 1545.464844 C 1017.117188 1545.160156 1015.617188 1544.785156 1014.136719 1544.335938 C 1012.65625 1543.886719 1011.203125 1543.367188 1009.773438 1542.777344 C 1008.34375 1542.183594 1006.949219 1541.523438 1005.585938 1540.796875 C 1004.222656 1540.066406 1002.894531 1539.273438 1001.609375 1538.414062 C 1000.324219 1537.554688 999.082031 1536.632812 997.886719 1535.652344 C 996.691406 1534.671875 995.546875 1533.632812 994.453125 1532.539062 C 993.359375 1531.445312 992.324219 1530.300781 991.339844 1529.105469 C 990.359375 1527.910156 989.441406 1526.671875 988.582031 1525.386719 C 987.722656 1524.097656 986.925781 1522.773438 986.199219 1521.410156 C 985.46875 1520.046875 984.808594 1518.652344 984.21875 1517.222656 C 983.625 1515.792969 983.105469 1514.339844 982.65625 1512.859375 C 982.207031 1511.378906 981.832031 1509.878906 981.53125 1508.363281 C 981.226562 1506.847656 981 1505.320312 980.851562 1503.78125 C 980.699219 1502.242188 980.621094 1500.699219 980.621094 1499.152344 C 980.621094 1497.605469 980.699219 1496.0625 980.851562 1494.523438 C 981 1492.984375 981.226562 1491.457031 981.53125 1489.941406 C 981.832031 1488.421875 982.207031 1486.925781 982.65625 1485.445312 C 983.105469 1483.964844 983.625 1482.511719 984.21875 1481.082031 C 984.808594 1479.652344 985.46875 1478.257812 986.199219 1476.894531 C 986.925781 1475.53125 987.722656 1474.203125 988.582031 1472.917969 C 989.441406 1471.632812 990.359375 1470.390625 991.339844 1469.195312 C 992.324219 1468 993.359375 1466.855469 994.453125 1465.761719 C 995.546875 1464.667969 996.691406 1463.632812 997.886719 1462.652344 C 999.082031 1461.671875 1000.324219 1460.75 1001.609375 1459.890625 C 1002.894531 1459.03125 1004.222656 1458.238281 1005.585938 1457.507812 C 1006.949219 1456.78125 1008.34375 1456.121094 1009.773438 1455.527344 C 1011.203125 1454.9375 1012.65625 1454.414062 1014.136719 1453.964844 C 1015.617188 1453.519531 1017.117188 1453.140625 1018.632812 1452.839844 C 1020.148438 1452.539062 1021.679688 1452.3125 1023.21875 1452.160156 C 1024.757812 1452.007812 1026.300781 1451.933594 1027.847656 1451.933594 L 2019.550781 1451.933594 C 2021.097656 1451.933594 2022.640625 1452.007812 2024.179688 1452.160156 C 2025.71875 1452.3125 2027.246094 1452.539062 2028.761719 1452.839844 C 2030.28125 1453.140625 2031.777344 1453.515625 2033.257812 1453.964844 C 2034.738281 1454.414062 2036.191406 1454.9375 2037.621094 1455.527344 C 2039.050781 1456.121094 2040.445312 1456.78125 2041.8125 1457.507812 C 2043.175781 1458.238281 2044.5 1459.03125 2045.785156 1459.890625 C 2047.070312 1460.75 2048.3125 1461.671875 2049.507812 1462.652344 C 2050.703125 1463.632812 2051.847656 1464.667969 2052.941406 1465.761719 C 2054.035156 1466.855469 2055.074219 1468 2056.054688 1469.195312 C 2057.035156 1470.390625 2057.957031 1471.632812 2058.816406 1472.917969 C 2059.675781 1474.203125 2060.46875 1475.53125 2061.195312 1476.894531 C 2061.925781 1478.257812 2062.585938 1479.652344 2063.179688 1481.082031 C 2063.769531 1482.511719 2064.289062 1483.964844 2064.738281 1485.445312 C 2065.1875 1486.925781 2065.5625 1488.421875 2065.867188 1489.941406 C 2066.167969 1491.457031 2066.394531 1492.984375 2066.546875 1494.523438 C 2066.699219 1496.0625 2066.773438 1497.605469 2066.773438 1499.152344 C 2066.773438 1500.699219 2066.699219 1502.242188 2066.546875 1503.78125 C 2066.394531 1505.320312 2066.167969 1506.847656 2065.867188 1508.363281 C 2065.5625 1509.878906 2065.1875 1511.378906 2064.738281 1512.859375 C 2064.289062 1514.339844 2063.769531 1515.792969 2063.179688 1517.222656 C 2062.585938 1518.652344 2061.925781 1520.046875 2061.195312 1521.410156 C 2060.46875 1522.773438 2059.675781 1524.097656 2058.816406 1525.386719 C 2057.957031 1526.671875 2057.035156 1527.910156 2056.054688 1529.105469 C 2055.074219 1530.300781 2054.035156 1531.445312 2052.941406 1532.539062 C 2051.847656 1533.632812 2050.703125 1534.671875 2049.507812 1535.652344 C 2048.3125 1536.632812 2047.070312 1537.554688 2045.785156 1538.414062 C 2044.5 1539.273438 2043.175781 1540.066406 2041.8125 1540.796875 C 2040.445312 1541.523438 2039.050781 1542.183594 2037.621094 1542.777344 C 2036.191406 1543.367188 2034.738281 1543.886719 2033.257812 1544.335938 C 2031.777344 1544.785156 2030.28125 1545.160156 2028.761719 1545.464844 C 2027.246094 1545.765625 2025.71875 1545.992188 2024.179688 1546.144531 C 2022.640625 1546.296875 2021.097656 1546.371094 2019.550781 1546.371094 Z M 2019.550781 1546.371094 " fill-opacity="1" fill-rule="nonzero"/></svg>